<?xml version="1.0" standalone="yes"?>

<svg version="1.1" viewBox="0.0 0.0 960.0 720.0" fill="none" stroke="none" stroke-linecap="square" stroke-miterlimit="10" xmlns="http://www.w3.org/2000/svg" xmlns:xlink="http://www.w3.org/1999/xlink"><clipPath id="p.0"><path d="m0 0l960.0 0l0 720.0l-960.0 0l0 -720.0z" clip-rule="nonzero"></path></clipPath><g clip-path="url(#p.0)"><path fill="#000000" fill-opacity="0.0" d="m0 0l960.0 0l0 720.0l-960.0 0z" fill-rule="nonzero"></path><path fill="#cfe2f3" d="m322.0 182.00262l98.01575 0l0 54.015747l-98.01575 0z" fill-rule="nonzero"></path><path stroke="#000000" stroke-width="2.0" stroke-linejoin="round" stroke-linecap="butt" d="m322.0 182.00262l98.01575 0l0 54.015747l-98.01575 0z" fill-rule="nonzero"></path><path fill="#000000" d="m332.51562 204.9305l0 -13.59375l1.8125 0l0 5.578125l7.0625 0l0 -5.578125l1.796875 0l0 13.59375l-1.796875 0l0 -6.40625l-7.0625 0l0 6.40625l-1.8125 0zm16.879211 0l0 -12.0l-4.46875 0l0 -1.59375l10.765625 0l0 1.59375l-4.5 0l0 12.0l-1.796875 0zm11.395966 0l0 -12.0l-4.46875 0l0 -1.59375l10.765625 0l0 1.59375l-4.5 0l0 12.0l-1.796875 0zm7.9428406 0l0 -13.59375l5.125 0q1.359375 0 2.078125 0.125q1.0 0.171875 1.671875 0.640625q0.671875 0.46875 1.078125 1.3125q0.421875 0.84375 0.421875 1.84375q0 1.734375 -1.109375 2.9375q-1.09375 1.203125 -3.984375 1.203125l-3.484375 0l0 5.53125l-1.796875 0zm1.796875 -7.140625l3.515625 0q1.75 0 2.46875 -0.640625q0.734375 -0.65625 0.734375 -1.828125q0 -0.859375 -0.4375 -1.46875q-0.421875 -0.609375 -1.125 -0.796875q-0.453125 -0.125 -1.671875 -0.125l-3.484375 0l0 4.859375z" fill-rule="nonzero"></path><path fill="#000000" d="m332.25 230.71175l0 -13.640625l1.53125 0l0 1.28125q0.53125 -0.75 1.203125 -1.125q0.6875 -0.375 1.640625 -0.375q1.265625 0 2.234375 0.65625q0.96875 0.640625 1.453125 1.828125q0.5 1.1875 0.5 2.59375q0 1.515625 -0.546875 2.734375q-0.546875 1.203125 -1.578125 1.84375q-1.03125 0.640625 -2.171875 0.640625q-0.84375 0 -1.515625 -0.34375q-0.65625 -0.359375 -1.078125 -0.890625l0 4.796875l-1.671875 0zm1.515625 -8.65625q0 1.90625 0.765625 2.8125q0.78125 0.90625 1.875 0.90625q1.109375 0 1.890625 -0.9375q0.796875 -0.9375 0.796875 -2.921875q0 -1.875 -0.78125 -2.8125q-0.765625 -0.9375 -1.84375 -0.9375q-1.0625 0 -1.890625 1.0q-0.8125 1.0 -0.8125 2.890625zm8.844482 4.875l0 -9.859375l1.5 0l0 1.5q0.578125 -1.046875 1.0625 -1.375q0.484375 -0.34375 1.078125 -0.34375q0.84375 0 1.71875 0.546875l-0.578125 1.546875q-0.609375 -0.359375 -1.234375 -0.359375q-0.546875 0 -0.984375 0.328125q-0.421875 0.328125 -0.609375 0.90625q-0.28125 0.890625 -0.28125 1.953125l0 5.15625l-1.671875 0zm5.6032715 -4.921875q0 -2.734375 1.53125 -4.0625q1.265625 -1.09375 3.09375 -1.09375q2.03125 0 3.3125 1.34375q1.296875 1.328125 1.296875 3.671875q0 1.90625 -0.578125 3.0q-0.5625 1.078125 -1.65625 1.6875q-1.078125 0.59375 -2.375 0.59375q-2.0625 0 -3.34375 -1.328125q-1.28125 -1.328125 -1.28125 -3.8125zm1.71875 0q0 1.890625 0.828125 2.828125q0.828125 0.9375 2.078125 0.9375q1.25 0 2.0625 -0.9375q0.828125 -0.953125 0.828125 -2.890625q0 -1.828125 -0.828125 -2.765625q-0.828125 -0.9375 -2.0625 -0.9375q-1.25 0 -2.078125 0.9375q-0.828125 0.9375 -0.828125 2.828125zm8.172607 4.921875l3.59375 -5.125l-3.328125 -4.734375l2.09375 0l1.515625 2.3125q0.421875 0.65625 0.671875 1.109375q0.421875 -0.609375 0.765625 -1.09375l1.65625 -2.328125l1.984375 0l-3.390625 4.640625l3.65625 5.21875l-2.046875 0l-2.03125 -3.0625l-0.53125 -0.828125l-2.59375 3.890625l-2.015625 0zm10.359375 3.796875l-0.171875 -1.5625q0.546875 0.140625 0.953125 0.140625q0.546875 0 0.875 -0.1875q0.34375 -0.1875 0.5625 -0.515625q0.15625 -0.25 0.5 -1.25q0.046875 -0.140625 0.15625 -0.40625l-3.734375 -9.875l1.796875 0l2.046875 5.71875q0.40625 1.078125 0.71875 2.28125q0.28125 -1.15625 0.6875 -2.25l2.09375 -5.75l1.671875 0l-3.75 10.03125q-0.59375 1.625 -0.9375 2.234375q-0.4375 0.828125 -1.015625 1.203125q-0.578125 0.390625 -1.375 0.390625q-0.484375 0 -1.078125 -0.203125z" fill-rule="nonzero"></path><path fill="#cfe2f3" d="m18.47244 257.54593l98.01575 0l0 77.00787l-98.01575 0z" fill-rule="nonzero"></path><path stroke="#000000" stroke-width="2.0" stroke-linejoin="round" stroke-linecap="butt" d="m18.47244 257.54593l98.01575 0l0 77.00787l-98.01575 0z" fill-rule="nonzero"></path><path fill="#000000" d="m38.644318 298.20425l1.796875 0.453125q-0.5625 2.21875 -2.03125 3.390625q-1.46875 1.15625 -3.59375 1.15625q-2.203125 0 -3.578127 -0.890625q-1.375 -0.90625 -2.09375 -2.59375q-0.71875 -1.703125 -0.71875 -3.65625q0 -2.125 0.796875 -3.703125q0.8125 -1.578125 2.3125 -2.390625q1.5000019 -0.828125 3.296877 -0.828125q2.046875 0 3.4375 1.046875q1.390625 1.03125 1.9375 2.90625l-1.765625 0.421875q-0.46875 -1.484375 -1.375 -2.15625q-0.90625 -0.6875 -2.265625 -0.6875q-1.5625 0 -2.625 0.75q-1.0468769 0.75 -1.4843769 2.03125q-0.421875 1.265625 -0.421875 2.609375q0 1.734375 0.5 3.03125q0.515625 1.28125 1.5781269 1.921875q1.078125 0.640625 2.3125 0.640625q1.515625 0 2.5625 -0.859375q1.046875 -0.875 1.421875 -2.59375zm3.5198212 4.765625l0 -13.59375l1.671875 0l0 13.59375l-1.671875 0zm4.191696 -11.6875l0 -1.90625l1.671875 0l0 1.90625l-1.671875 0zm0 11.6875l0 -9.859375l1.671875 0l0 9.859375l-1.671875 0zm10.879196 -3.171875l1.71875 0.21875q-0.40625 1.5 -1.515625 2.34375q-1.09375 0.828125 -2.8125 0.828125q-2.15625 0 -3.421875 -1.328125q-1.265625 -1.328125 -1.265625 -3.734375q0 -2.484375 1.265625 -3.859375q1.28125 -1.375 3.328125 -1.375q1.984375 0 3.234375 1.34375q1.25 1.34375 1.25 3.796875q0 0.140625 -0.015625 0.4375l-7.34375 0q0.09375 1.625 0.921875 2.484375q0.828125 0.859375 2.0625 0.859375q0.90625 0 1.546875 -0.46875q0.65625 -0.484375 1.046875 -1.546875zm-5.484375 -2.703125l5.5 0q-0.109375 -1.234375 -0.625 -1.859375q-0.796875 -0.96875 -2.078125 -0.96875q-1.140625 0 -1.9375 0.78125q-0.78125 0.765625 -0.859375 2.046875zm9.110092 5.875l0 -9.859375l1.5 0l0 1.40625q1.09375 -1.625 3.140625 -1.625q0.890625 0 1.640625 0.328125q0.75 0.3125 1.109375 0.84375q0.375 0.515625 0.53125 1.21875q0.09375 0.46875 0.09375 1.625l0 6.0625l-1.671875 0l0 -6.0q0 -1.015625 -0.203125 -1.515625q-0.1875 -0.515625 -0.6875 -0.8125q-0.5 -0.296875 -1.171875 -0.296875q-1.0625 0 -1.84375 0.671875q-0.765625 0.671875 -0.765625 2.578125l0 5.375l-1.671875 0zm14.031967 -1.5l0.234375 1.484375q-0.703125 0.140625 -1.265625 0.140625q-0.90625 0 -1.40625 -0.28125q-0.5 -0.296875 -0.703125 -0.75q-0.203125 -0.46875 -0.203125 -1.984375l0 -5.65625l-1.234375 0l0 -1.3125l1.234375 0l0 -2.4375l1.65625 -1.0l0 3.4375l1.6875 0l0 1.3125l-1.6875 0l0 5.75q0 0.71875 0.078125 0.921875q0.09375 0.203125 0.296875 0.328125q0.203125 0.125 0.578125 0.125q0.265625 0 0.734375 -0.078125zm0.85517883 -1.4375l1.65625 -0.265625q0.140625 1.0 0.765625 1.53125q0.640625 0.515625 1.78125 0.515625q1.15625 0 1.703125 -0.46875q0.5625 -0.46875 0.5625 -1.09375q0 -0.5625 -0.484375 -0.890625q-0.34375 -0.21875 -1.703125 -0.5625q-1.84375 -0.46875 -2.5625 -0.796875q-0.703125 -0.34375 -1.078125 -0.9375q-0.359375 -0.609375 -0.359375 -1.328125q0 -0.65625 0.296875 -1.21875q0.3125 -0.5625 0.828125 -0.9375q0.390625 -0.28125 1.0625 -0.484375q0.671875 -0.203125 1.4375 -0.203125q1.171875 0 2.046875 0.34375q0.875 0.328125 1.28125 0.90625q0.421875 0.5625 0.578125 1.515625l-1.625 0.21875q-0.109375 -0.75 -0.65625 -1.171875q-0.53125 -0.4375 -1.5 -0.4375q-1.15625 0 -1.640625 0.390625q-0.484375 0.375 -0.484375 0.875q0 0.328125 0.203125 0.59375q0.203125 0.265625 0.640625 0.4375q0.25 0.09375 1.46875 0.4375q1.765625 0.46875 2.46875 0.765625q0.703125 0.296875 1.09375 0.875q0.40625 0.578125 0.40625 1.4375q0 0.828125 -0.484375 1.578125q-0.484375 0.734375 -1.40625 1.140625q-0.921875 0.390625 -2.078125 0.390625q-1.921875 0 -2.9375 -0.796875q-1.0 -0.796875 -1.28125 -2.359375z" fill-rule="nonzero"></path><path fill="#cfe2f3" d="m420.00787 182.0l173.82678 0l0 84.97638l-173.82678 0z" fill-rule="nonzero"></path><path stroke="#000000" stroke-width="2.0" stroke-linejoin="round" stroke-linecap="butt" d="m420.00787 182.0l173.82678 0l0 84.97638l-173.82678 0z" fill-rule="nonzero"></path><path fill="#000000" d="m430.3985 220.40819l0 -13.59375l1.796875 0l0 6.734375l6.765625 -6.734375l2.4375 0l-5.703125 5.5l5.953125 8.09375l-2.375 0l-4.84375 -6.890625l-2.234375 2.171875l0 4.71875l-1.796875 0zm19.052948 -3.171875l1.71875 0.21875q-0.40625 1.5 -1.515625 2.34375q-1.09375 0.828125 -2.8125 0.828125q-2.15625 0 -3.421875 -1.328125q-1.265625 -1.328125 -1.265625 -3.734375q0 -2.484375 1.265625 -3.859375q1.28125 -1.375 3.328125 -1.375q1.984375 0 3.234375 1.34375q1.25 1.34375 1.25 3.796875q0 0.140625 -0.015625 0.4375l-7.34375 0q0.09375 1.625 0.921875 2.484375q0.828125 0.859375 2.0625 0.859375q0.90625 0 1.546875 -0.46875q0.65625 -0.484375 1.046875 -1.546875zm-5.484375 -2.703125l5.5 0q-0.109375 -1.234375 -0.625 -1.859375q-0.796875 -0.96875 -2.078125 -0.96875q-1.140625 0 -1.9375 0.78125q-0.78125 0.765625 -0.859375 2.046875zm9.031982 9.671875l-0.171875 -1.5625q0.546875 0.140625 0.953125 0.140625q0.546875 0 0.875 -0.1875q0.34375 -0.1875 0.5625 -0.515625q0.15625 -0.25 0.5 -1.25q0.046875 -0.140625 0.15625 -0.40625l-3.734375 -9.875l1.796875 0l2.046875 5.71875q0.40625 1.078125 0.71875 2.28125q0.28125 -1.15625 0.6875 -2.25l2.09375 -5.75l1.671875 0l-3.75 10.03125q-0.59375 1.625 -0.9375 2.234375q-0.4375 0.828125 -1.015625 1.203125q-0.578125 0.390625 -1.375 0.390625q-0.484375 0 -1.078125 -0.203125zm18.261414 -3.796875l0 -12.0l-4.46875 0l0 -1.59375l10.765625 0l0 1.59375l-4.5 0l0 12.0l-1.796875 0zm7.708496 0l0 -9.859375l1.5 0l0 1.5q0.578125 -1.046875 1.0625 -1.375q0.484375 -0.34375 1.078125 -0.34375q0.84375 0 1.71875 0.546875l-0.578125 1.546875q-0.609375 -0.359375 -1.234375 -0.359375q-0.546875 0 -0.984375 0.328125q-0.421875 0.328125 -0.609375 0.90625q-0.28125 0.890625 -0.28125 1.953125l0 5.15625l-1.671875 0zm12.665802 -1.21875q-0.9375 0.796875 -1.796875 1.125q-0.859375 0.3125 -1.84375 0.3125q-1.609375 0 -2.484375 -0.78125q-0.875 -0.796875 -0.875 -2.03125q0 -0.734375 0.328125 -1.328125q0.328125 -0.59375 0.859375 -0.953125q0.53125 -0.359375 1.203125 -0.546875q0.5 -0.140625 1.484375 -0.25q2.03125 -0.25 2.984375 -0.578125q0 -0.34375 0 -0.4375q0 -1.015625 -0.46875 -1.4375q-0.640625 -0.5625 -1.90625 -0.5625q-1.171875 0 -1.734375 0.40625q-0.5625 0.40625 -0.828125 1.46875l-1.640625 -0.234375q0.234375 -1.046875 0.734375 -1.6875q0.515625 -0.640625 1.46875 -0.984375q0.96875 -0.359375 2.25 -0.359375q1.265625 0 2.046875 0.296875q0.78125 0.296875 1.15625 0.75q0.375 0.453125 0.515625 1.140625q0.09375 0.421875 0.09375 1.53125l0 2.234375q0 2.328125 0.09375 2.953125q0.109375 0.609375 0.4375 1.171875l-1.75 0q-0.265625 -0.515625 -0.328125 -1.21875zm-0.140625 -3.71875q-0.90625 0.359375 -2.734375 0.625q-1.03125 0.140625 -1.453125 0.328125q-0.421875 0.1875 -0.65625 0.546875q-0.234375 0.359375 -0.234375 0.796875q0 0.671875 0.5 1.125q0.515625 0.4375 1.484375 0.4375q0.96875 0 1.71875 -0.421875q0.75 -0.4375 1.109375 -1.15625q0.265625 -0.578125 0.265625 -1.671875l0 -0.609375zm4.078827 4.9375l0 -9.859375l1.5 0l0 1.40625q1.09375 -1.625 3.140625 -1.625q0.890625 0 1.640625 0.328125q0.75 0.3125 1.109375 0.84375q0.375 0.515625 0.53125 1.21875q0.09375 0.46875 0.09375 1.625l0 6.0625l-1.671875 0l0 -6.0q0 -1.015625 -0.203125 -1.515625q-0.1875 -0.515625 -0.6875 -0.8125q-0.5 -0.296875 -1.171875 -0.296875q-1.0625 0 -1.84375 0.671875q-0.765625 0.671875 -0.765625 2.578125l0 5.375l-1.671875 0zm9.703857 -2.9375l1.65625 -0.265625q0.140625 1.0 0.765625 1.53125q0.640625 0.515625 1.78125 0.515625q1.15625 0 1.703125 -0.46875q0.5625 -0.46875 0.5625 -1.09375q0 -0.5625 -0.484375 -0.890625q-0.34375 -0.21875 -1.703125 -0.5625q-1.84375 -0.46875 -2.5625 -0.796875q-0.703125 -0.34375 -1.078125 -0.9375q-0.359375 -0.609375 -0.359375 -1.328125q0 -0.65625 0.296875 -1.21875q0.3125 -0.5625 0.828125 -0.9375q0.390625 -0.28125 1.0625 -0.484375q0.671875 -0.203125 1.4375 -0.203125q1.171875 0 2.046875 0.34375q0.8749695 0.328125 1.2812195 0.90625q0.421875 0.5625 0.578125 1.515625l-1.6249695 0.21875q-0.109375 -0.75 -0.65625 -1.171875q-0.53125 -0.4375 -1.5 -0.4375q-1.15625 0 -1.640625 0.390625q-0.484375 0.375 -0.484375 0.875q0 0.328125 0.203125 0.59375q0.203125 0.265625 0.640625 0.4375q0.25 0.09375 1.46875 0.4375q1.765625 0.46875 2.46875 0.765625q0.7030945 0.296875 1.0937195 0.875q0.40625 0.578125 0.40625 1.4375q0 0.828125 -0.484375 1.578125q-0.484375 0.734375 -1.4062195 1.140625q-0.921875 0.390625 -2.078125 0.390625q-1.921875 0 -2.9375 -0.796875q-1.0 -0.796875 -1.28125 -2.359375zm9.9999695 6.71875l0 -13.640625l1.53125 0l0 1.28125q0.53125 -0.75 1.203125 -1.125q0.6875 -0.375 1.640625 -0.375q1.265625 0 2.234375 0.65625q0.96875 0.640625 1.453125 1.828125q0.5 1.1875 0.5 2.59375q0 1.515625 -0.546875 2.734375q-0.546875 1.203125 -1.578125 1.84375q-1.03125 0.640625 -2.171875 0.640625q-0.84375 0 -1.515625 -0.34375q-0.65625 -0.359375 -1.078125 -0.890625l0 4.796875l-1.671875 0zm1.515625 -8.65625q0 1.90625 0.765625 2.8125q0.78125 0.90625 1.875 0.90625q1.109375 0 1.890625 -0.9375q0.796875 -0.9375 0.796875 -2.921875q0 -1.875 -0.78125 -2.8125q-0.765625 -0.9375 -1.84375 -0.9375q-1.0625 0 -1.890625 1.0q-0.8125 1.0 -0.8125 2.890625zm15.297607 3.65625q-0.9375 0.796875 -1.796875 1.125q-0.859375 0.3125 -1.84375 0.3125q-1.609375 0 -2.484375 -0.78125q-0.875 -0.796875 -0.875 -2.03125q0 -0.734375 0.328125 -1.328125q0.328125 -0.59375 0.859375 -0.953125q0.53125 -0.359375 1.203125 -0.546875q0.5 -0.140625 1.484375 -0.25q2.03125 -0.25 2.984375 -0.578125q0 -0.34375 0 -0.4375q0 -1.015625 -0.46875 -1.4375q-0.640625 -0.5625 -1.90625 -0.5625q-1.171875 0 -1.734375 0.40625q-0.5625 0.40625 -0.828125 1.46875l-1.640625 -0.234375q0.234375 -1.046875 0.734375 -1.6875q0.515625 -0.640625 1.46875 -0.984375q0.96875 -0.359375 2.25 -0.359375q1.265625 0 2.046875 0.296875q0.78125 0.296875 1.15625 0.75q0.375 0.453125 0.515625 1.140625q0.09375 0.421875 0.09375 1.53125l0 2.234375q0 2.328125 0.09375 2.953125q0.109375 0.609375 0.4375 1.171875l-1.75 0q-0.265625 -0.515625 -0.328125 -1.21875zm-0.140625 -3.71875q-0.90625 0.359375 -2.734375 0.625q-1.03125 0.140625 -1.453125 0.328125q-0.421875 0.1875 -0.65625 0.546875q-0.234375 0.359375 -0.234375 0.796875q0 0.671875 0.5 1.125q0.515625 0.4375 1.484375 0.4375q0.96875 0 1.71875 -0.421875q0.75 -0.4375 1.109375 -1.15625q0.265625 -0.578125 0.265625 -1.671875l0 -0.609375zm4.0632324 4.9375l0 -9.859375l1.5 0l0 1.5q0.578125 -1.046875 1.0625 -1.375q0.484375 -0.34375 1.078125 -0.34375q0.84375 0 1.71875 0.546875l-0.578125 1.546875q-0.609375 -0.359375 -1.234375 -0.359375q-0.546875 0 -0.984375 0.328125q-0.421875 0.328125 -0.609375 0.90625q-0.28125 0.890625 -0.28125 1.953125l0 5.15625l-1.671875 0zm12.9782715 -3.171875l1.71875 0.21875q-0.40625 1.5 -1.515625 2.34375q-1.09375 0.828125 -2.8125 0.828125q-2.15625 0 -3.421875 -1.328125q-1.265625 -1.328125 -1.265625 -3.734375q0 -2.484375 1.265625 -3.859375q1.28125 -1.375 3.328125 -1.375q1.984375 0 3.234375 1.34375q1.25 1.34375 1.25 3.796875q0 0.140625 -0.015625 0.4375l-7.34375 0q0.09375 1.625 0.921875 2.484375q0.828125 0.859375 2.0625 0.859375q0.90625 0 1.546875 -0.46875q0.65625 -0.484375 1.046875 -1.546875zm-5.484375 -2.703125l5.5 0q-0.109375 -1.234375 -0.625 -1.859375q-0.796875 -0.96875 -2.078125 -0.96875q-1.140625 0 -1.9375 0.78125q-0.78125 0.765625 -0.859375 2.046875zm9.110107 5.875l0 -9.859375l1.5 0l0 1.40625q1.09375 -1.625 3.140625 -1.625q0.890625 0 1.640625 0.328125q0.75 0.3125 1.109375 0.84375q0.375 0.515625 0.53125 1.21875q0.09375 0.46875 0.09375 1.625l0 6.0625l-1.671875 0l0 -6.0q0 -1.015625 -0.203125 -1.515625q-0.1875 -0.515625 -0.6875 -0.8125q-0.5 -0.296875 -1.171875 -0.296875q-1.0625 0 -1.84375 0.671875q-0.765625 0.671875 -0.765625 2.578125l0 5.375l-1.671875 0zm16.813232 -3.609375l1.640625 0.21875q-0.265625 1.6875 -1.375 2.65625q-1.109375 0.953125 -2.734375 0.953125q-2.015625 0 -3.25 -1.3125q-1.21875 -1.328125 -1.21875 -3.796875q0 -1.59375 0.515625 -2.78125q0.53125 -1.203125 1.609375 -1.796875q1.09375 -0.609375 2.359375 -0.609375q1.609375 0 2.625 0.8125q1.015625 0.8125 1.3125 2.3125l-1.625 0.25q-0.234375 -1.0 -0.828125 -1.5q-0.59375 -0.5 -1.421875 -0.5q-1.265625 0 -2.0625 0.90625q-0.78125 0.90625 -0.78125 2.859375q0 1.984375 0.765625 2.890625q0.765625 0.890625 1.984375 0.890625q0.984375 0 1.640625 -0.59375q0.65625 -0.609375 0.84375 -1.859375zm2.8125 7.40625l-0.171875 -1.5625q0.546875 0.140625 0.953125 0.140625q0.546875 0 0.875 -0.1875q0.34375 -0.1875 0.5625 -0.515625q0.15625 -0.25 0.5 -1.25q0.046875 -0.140625 0.15625 -0.40625l-3.734375 -9.875l1.796875 0l2.046875 5.71875q0.40625 1.078125 0.71875 2.28125q0.28125 -1.15625 0.6875 -2.25l2.09375 -5.75l1.671875 0l-3.75 10.03125q-0.59375 1.625 -0.9375 2.234375q-0.4375 0.828125 -1.015625 1.203125q-0.578125 0.390625 -1.375 0.390625q-0.484375 0 -1.078125 -0.203125z" fill-rule="nonzero"></path><path fill="#000000" d="m429.961 243.22069l1.609375 0.25q0.109375 0.75 0.578125 1.09375q0.609375 0.453125 1.6875 0.453125q1.171875 0 1.796875 -0.46875q0.625 -0.453125 0.859375 -1.28125q0.125 -0.515625 0.109375 -2.15625q-1.09375 1.296875 -2.71875 1.296875q-2.03125 0 -3.15625 -1.46875q-1.109375 -1.46875 -1.109375 -3.515625q0 -1.40625 0.515625 -2.59375q0.515625 -1.203125 1.484375 -1.84375q0.96875 -0.65625 2.265625 -0.65625q1.75 0 2.875 1.40625l0 -1.1875l1.546875 0l0 8.515625q0 2.3125 -0.46875 3.265625q-0.46875 0.96875 -1.484375 1.515625q-1.015625 0.5625 -2.5 0.5625q-1.765625 0 -2.859375 -0.796875q-1.078125 -0.796875 -1.03125 -2.390625zm1.375 -5.921875q0 1.953125 0.765625 2.84375q0.78125 0.890625 1.9375 0.890625q1.140625 0 1.921875 -0.890625q0.78125 -0.890625 0.78125 -2.78125q0 -1.8125 -0.8125 -2.71875q-0.796875 -0.921875 -1.921875 -0.921875q-1.109375 0 -1.890625 0.90625q-0.78125 0.890625 -0.78125 2.671875zm9.547607 5.109375l0 -13.59375l6.03125 0q1.8125 0 2.75 0.359375q0.953125 0.359375 1.515625 1.296875q0.5625 0.921875 0.5625 2.046875q0 1.453125 -0.9375 2.453125q-0.921875 0.984375 -2.890625 1.25q0.71875 0.34375 1.09375 0.671875q0.78125 0.734375 1.484375 1.8125l2.375 3.703125l-2.265625 0l-1.796875 -2.828125q-0.796875 -1.21875 -1.3125 -1.875q-0.5 -0.65625 -0.90625 -0.90625q-0.40625 -0.265625 -0.8125 -0.359375q-0.3125 -0.078125 -1.015625 -0.078125l-2.078125 0l0 6.046875l-1.796875 0zm1.796875 -7.59375l3.859375 0q1.234375 0 1.921875 -0.25q0.703125 -0.265625 1.0625 -0.828125q0.375 -0.5625 0.375 -1.21875q0 -0.96875 -0.703125 -1.578125q-0.703125 -0.625 -2.21875 -0.625l-4.296875 0l0 4.5zm11.644806 7.59375l0 -13.59375l5.125 0q1.359375 0 2.078125 0.125q1.0 0.171875 1.671875 0.640625q0.671875 0.46875 1.078125 1.3125q0.421875 0.84375 0.421875 1.84375q0 1.734375 -1.109375 2.9375q-1.09375 1.203125 -3.984375 1.203125l-3.484375 0l0 5.53125l-1.796875 0zm1.796875 -7.140625l3.515625 0q1.75 0 2.46875 -0.640625q0.734375 -0.65625 0.734375 -1.828125q0 -0.859375 -0.4375 -1.46875q-0.421875 -0.609375 -1.125 -0.796875q-0.453125 -0.125 -1.671875 -0.125l-3.484375 0l0 4.859375zm20.349823 2.375l1.796875 0.453125q-0.5625 2.21875 -2.03125 3.390625q-1.46875 1.15625 -3.59375 1.15625q-2.203125 0 -3.578125 -0.890625q-1.375 -0.90625 -2.09375 -2.59375q-0.71875 -1.703125 -0.71875 -3.65625q0 -2.125 0.796875 -3.703125q0.8125 -1.578125 2.3125 -2.390625q1.5 -0.828125 3.296875 -0.828125q2.046875 0 3.4375 1.046875q1.390625 1.03125 1.9375 2.90625l-1.765625 0.421875q-0.46875 -1.484375 -1.375 -2.15625q-0.90625 -0.6875 -2.265625 -0.6875q-1.5625 0 -2.625 0.75q-1.046875 0.75 -1.484375 2.03125q-0.421875 1.265625 -0.421875 2.609375q0 1.734375 0.5 3.03125q0.515625 1.28125 1.578125 1.921875q1.078125 0.640625 2.3125 0.640625q1.515625 0 2.5625 -0.859375q1.046875 -0.875 1.421875 -2.59375zm9.046875 4.765625l0 -13.59375l9.171875 0l0 1.59375l-7.375 0l0 4.21875l6.375 0l0 1.609375l-6.375 0l0 6.171875l-1.796875 0zm11.067871 0l0 -9.859375l1.5 0l0 1.5q0.578125 -1.046875 1.0625 -1.375q0.484375 -0.34375 1.078125 -0.34375q0.84375 0 1.71875 0.546875l-0.578125 1.546875q-0.609375 -0.359375 -1.234375 -0.359375q-0.546875 0 -0.984375 0.328125q-0.421875 0.328125 -0.609375 0.90625q-0.28125 0.890625 -0.28125 1.953125l0 5.15625l-1.671875 0zm5.603302 -4.921875q0 -2.734375 1.53125 -4.0625q1.265625 -1.09375 3.09375 -1.09375q2.03125 0 3.3125 1.34375q1.296875 1.328125 1.296875 3.671875q0 1.90625 -0.578125 3.0q-0.5625 1.078125 -1.65625 1.6875q-1.078125 0.59375 -2.375 0.59375q-2.0625 0 -3.34375 -1.328125q-1.28125 -1.328125 -1.28125 -3.8125zm1.71875 0q0 1.890625 0.828125 2.828125q0.828125 0.9375 2.078125 0.9375q1.25 0 2.0625 -0.9375q0.828125 -0.953125 0.828125 -2.890625q0 -1.828125 -0.828125 -2.765625q-0.828125 -0.9375 -2.0625 -0.9375q-1.25 0 -2.078125 0.9375q-0.828125 0.9375 -0.828125 2.828125zm9.281952 4.921875l0 -9.859375l1.5 0l0 1.40625q1.09375 -1.625 3.140625 -1.625q0.890625 0 1.640625 0.328125q0.75 0.3125 1.109375 0.84375q0.375 0.515625 0.53125 1.21875q0.09375 0.46875 0.09375 1.625l0 6.0625l-1.671875 0l0 -6.0q0 -1.015625 -0.203125 -1.515625q-0.1875 -0.515625 -0.6875 -0.8125q-0.5 -0.296875 -1.171875 -0.296875q-1.0625 0 -1.84375 0.671875q-0.765625 0.671875 -0.765625 2.578125l0 5.375l-1.671875 0zm14.031982 -1.5l0.234375 1.484375q-0.703125 0.140625 -1.265625 0.140625q-0.90625 0 -1.40625 -0.28125q-0.5 -0.296875 -0.703125 -0.75q-0.203125 -0.46875 -0.203125 -1.984375l0 -5.65625l-1.234375 0l0 -1.3125l1.234375 0l0 -2.4375l1.65625 -1.0l0 3.4375l1.6875 0l0 1.3125l-1.6875 0l0 5.75q0 0.71875 0.078125 0.921875q0.09375 0.203125 0.296875 0.328125q0.203125 0.125 0.578125 0.125q0.265625 0 0.734375 -0.078125zm8.277039 -1.671875l1.71875 0.21875q-0.40625 1.5 -1.515625 2.34375q-1.09375 0.828125 -2.8125 0.828125q-2.15625 0 -3.421875 -1.328125q-1.265625 -1.328125 -1.265625 -3.734375q0 -2.484375 1.265625 -3.859375q1.28125 -1.375 3.328125 -1.375q1.984375 0 3.234375 1.34375q1.25 1.34375 1.25 3.796875q0 0.140625 -0.015625 0.4375l-7.34375 0q0.09375 1.625 0.921875 2.484375q0.828125 0.859375 2.0625 0.859375q0.90625 0 1.546875 -0.46875q0.65625 -0.484375 1.046875 -1.546875zm-5.484375 -2.703125l5.5 0q-0.109375 -1.234375 -0.625 -1.859375q-0.796875 -0.96875 -2.078125 -0.96875q-1.140625 0 -1.9375 0.78125q-0.78125 0.765625 -0.859375 2.046875zm9.110107 5.875l0 -9.859375l1.5 0l0 1.40625q1.09375 -1.625 3.140625 -1.625q0.890625 0 1.640625 0.328125q0.75 0.3125 1.109375 0.84375q0.375 0.515625 0.53125 1.21875q0.09375 0.46875 0.09375 1.625l0 6.0625l-1.671875 0l0 -6.0q0 -1.015625 -0.203125 -1.515625q-0.1875 -0.515625 -0.6875 -0.8125q-0.5 -0.296875 -1.171875 -0.296875q-1.0625 0 -1.84375 0.671875q-0.765625 0.671875 -0.765625 2.578125l0 5.375l-1.671875 0zm16.766357 0l0 -1.25q-0.9375 1.46875 -2.75 1.46875q-1.171875 0 -2.171875 -0.640625q-0.984375 -0.65625 -1.53125 -1.8125q-0.53125 -1.171875 -0.53125 -2.6875q0 -1.46875 0.484375 -2.671875q0.5 -1.203125 1.46875 -1.84375q0.984375 -0.640625 2.203125 -0.640625q0.890625 0 1.578125 0.375q0.703125 0.375 1.140625 0.984375l0 -4.875l1.65625 0l0 13.59375l-1.546875 0zm-5.28125 -4.921875q0 1.890625 0.796875 2.828125q0.8125 0.9375 1.890625 0.9375q1.09375 0 1.859375 -0.890625q0.765625 -0.890625 0.765625 -2.734375q0 -2.015625 -0.78125 -2.953125q-0.78125 -0.953125 -1.921875 -0.953125q-1.109375 0 -1.859375 0.90625q-0.75 0.90625 -0.75 2.859375z" fill-rule="nonzero"></path><path fill="#000000" fill-opacity="0.0" d="m244.4252 247.74278l173.63779 1.1338654" fill-rule="nonzero"></path><path stroke="#000000" stroke-width="2.0" stroke-linejoin="round" stroke-linecap="butt" d="m244.4252 247.74278l161.63803 1.0555115" fill-rule="evenodd"></path><path fill="#000000" stroke="#000000" stroke-width="2.0" stroke-linecap="butt" d="m406.0417 252.10167l9.097565 -3.2441254l-9.054443 -3.3626556z" fill-rule="evenodd"></path><path fill="#000000" fill-opacity="0.0" d="m240.48819 177.13649l81.51181 0l0 24.062988l-81.51181 0z" fill-rule="nonzero"></path><path fill="#000000" d="m251.00381 204.05649l0 -13.59375l1.8125 0l0 5.578125l7.0625 0l0 -5.578125l1.796875 0l0 13.59375l-1.796875 0l0 -6.40625l-7.0625 0l0 6.40625l-1.8125 0zm16.87918 0l0 -12.0l-4.46875 0l0 -1.59375l10.765625 0l0 1.59375l-4.5 0l0 12.0l-1.796875 0zm11.395996 0l0 -12.0l-4.46875 0l0 -1.59375l10.765625 0l0 1.59375l-4.5 0l0 12.0l-1.796875 0zm7.9428406 0l0 -13.59375l5.125 0q1.359375 0 2.078125 0.125q1.0 0.171875 1.671875 0.640625q0.671875 0.46875 1.078125 1.3125q0.421875 0.84375 0.421875 1.84375q0 1.734375 -1.109375 2.9375q-1.09375 1.203125 -3.984375 1.203125l-3.484375 0l0 5.53125l-1.796875 0zm1.796875 -7.140625l3.515625 0q1.75 0 2.46875 -0.640625q0.734375 -0.65625 0.734375 -1.828125q0 -0.859375 -0.4375 -1.46875q-0.421875 -0.609375 -1.125 -0.796875q-0.453125 -0.125 -1.671875 -0.125l-3.484375 0l0 4.859375zm10.037323 2.765625l1.6875 -0.140625q0.125 1.015625 0.5625 1.671875q0.4375 0.65625 1.359375 1.0625q0.9375 0.40625 2.09375 0.40625q1.03125 0 1.8125 -0.3125q0.796875 -0.3125 1.1875 -0.84375q0.390625 -0.53125 0.390625 -1.15625q0 -0.640625 -0.375 -1.109375q-0.375 -0.484375 -1.234375 -0.8125q-0.546875 -0.21875 -2.421875 -0.65625q-1.875 -0.453125 -2.625 -0.859375q-0.96875 -0.515625 -1.453125 -1.265625q-0.46875 -0.75 -0.46875 -1.6875q0 -1.03125 0.578125 -1.921875q0.59375 -0.90625 1.703125 -1.359375q1.125 -0.46875 2.5 -0.46875q1.515625 0 2.671875 0.484375q1.15625 0.484375 1.765625 1.4375q0.625 0.9375 0.671875 2.140625l-1.71875 0.125q-0.140625 -1.28125 -0.953125 -1.9375q-0.796875 -0.671875 -2.359375 -0.671875q-1.625 0 -2.375 0.609375q-0.75 0.59375 -0.75 1.4375q0 0.734375 0.53125 1.203125q0.515625 0.46875 2.703125 0.96875q2.203125 0.5 3.015625 0.875q1.1875 0.546875 1.75 1.390625q0.578125 0.828125 0.578125 1.921875q0 1.09375 -0.625 2.0625q-0.625 0.953125 -1.796875 1.484375q-1.15625 0.53125 -2.609375 0.53125q-1.84375 0 -3.09375 -0.53125q-1.25 -0.546875 -1.96875 -1.625q-0.703125 -1.078125 -0.734375 -2.453125z" fill-rule="nonzero"></path><path fill="#000000" fill-opacity="0.0" d="m275.5118 242.0l81.51181 0l0 24.062988l-81.51181 0z" fill-rule="nonzero"></path><path fill="#000000" d="m285.46494 269.73248l1.609375 0.25q0.109375 0.75 0.578125 1.09375q0.609375 0.453125 1.6875 0.453125q1.171875 0 1.796875 -0.46875q0.625 -0.453125 0.859375 -1.28125q0.125 -0.515625 0.109375 -2.15625q-1.09375 1.296875 -2.71875 1.296875q-2.03125 0 -3.15625 -1.46875q-1.109375 -1.46875 -1.109375 -3.515625q0 -1.40625 0.515625 -2.59375q0.515625 -1.203125 1.484375 -1.84375q0.96875 -0.65625 2.265625 -0.65625q1.75 0 2.875 1.40625l0 -1.1875l1.546875 0l0 8.515625q0 2.3125 -0.46875 3.265625q-0.46875 0.96875 -1.484375 1.515625q-1.015625 0.5625 -2.5 0.5625q-1.765625 0 -2.859375 -0.796875q-1.078125 -0.796875 -1.03125 -2.390625zm1.375 -5.921875q0 1.953125 0.765625 2.84375q0.78125 0.890625 1.9375 0.890625q1.140625 0 1.921875 -0.890625q0.78125 -0.890625 0.78125 -2.78125q0 -1.8125 -0.8125 -2.71875q-0.796875 -0.921875 -1.921875 -0.921875q-1.109375 0 -1.890625 0.90625q-0.78125 0.890625 -0.78125 2.671875zm9.547607 5.109375l0 -13.593735l6.03125 0q1.8125 0 2.75 0.359375q0.953125 0.35935974 1.515625 1.2968597q0.5625 0.921875 0.5625 2.046875q0 1.453125 -0.9375 2.453125q-0.921875 0.984375 -2.890625 1.25q0.71875 0.34375 1.09375 0.671875q0.78125 0.734375 1.484375 1.8125l2.375 3.703125l-2.265625 0l-1.796875 -2.828125q-0.796875 -1.21875 -1.3125 -1.875q-0.5 -0.65625 -0.90625 -0.90625q-0.40625 -0.265625 -0.8125 -0.359375q-0.3125 -0.078125 -1.015625 -0.078125l-2.078125 0l0 6.046875l-1.796875 0zm1.796875 -7.59375l3.859375 0q1.234375 0 1.921875 -0.25q0.703125 -0.265625 1.0625 -0.828125q0.375 -0.5625 0.375 -1.21875q0 -0.96875 -0.703125 -1.578125q-0.703125 -0.625 -2.21875 -0.625l-4.296875 0l0 4.5zm11.644806 7.59375l0 -13.593735l5.125 0q1.359375 0 2.078125 0.125q1.0 0.171875 1.671875 0.64060974q0.671875 0.46875 1.078125 1.3125q0.421875 0.84375 0.421875 1.84375q0 1.734375 -1.109375 2.9375q-1.09375 1.203125 -3.984375 1.203125l-3.484375 0l0 5.53125l-1.796875 0zm1.796875 -7.140625l3.515625 0q1.75 0 2.46875 -0.640625q0.734375 -0.65625 0.734375 -1.828125q0 -0.859375 -0.4375 -1.46875q-0.421875 -0.609375 -1.125 -0.796875q-0.453125 -0.125 -1.671875 -0.125l-3.484375 0l0 4.859375zm20.349823 2.375l1.796875 0.453125q-0.5625 2.21875 -2.03125 3.390625q-1.46875 1.15625 -3.59375 1.15625q-2.203125 0 -3.578125 -0.890625q-1.375 -0.90625 -2.09375 -2.59375q-0.71875 -1.703125 -0.71875 -3.65625q0 -2.125 0.796875 -3.703125q0.8125 -1.578125 2.3125 -2.3906097q1.5 -0.828125 3.296875 -0.828125q2.046875 0 3.4375 1.0468597q1.390625 1.03125 1.9375 2.90625l-1.765625 0.421875q-0.46875 -1.484375 -1.375 -2.15625q-0.90625 -0.6875 -2.265625 -0.6875q-1.5625 0 -2.625 0.75q-1.046875 0.75 -1.484375 2.03125q-0.421875 1.265625 -0.421875 2.609375q0 1.734375 0.5 3.03125q0.515625 1.28125 1.578125 1.921875q1.078125 0.640625 2.3125 0.640625q1.515625 0 2.5625 -0.859375q1.046875 -0.875 1.421875 -2.59375z" fill-rule="nonzero"></path><path fill="#cfe2f3" d="m786.1732 247.33635l157.22833 0l0 84.976364l-157.22833 0z" fill-rule="nonzero"></path><path stroke="#000000" stroke-width="2.0" stroke-linejoin="round" stroke-linecap="butt" d="m786.1732 247.33635l157.22833 0l0 84.976364l-157.22833 0z" fill-rule="nonzero"></path><path fill="#000000" d="m796.0326 292.36954l1.6875 -0.140625q0.125 1.015625 0.5625 1.671875q0.4375 0.65625 1.359375 1.0625q0.9375 0.40625 2.09375 0.40625q1.03125 0 1.8125 -0.3125q0.796875 -0.3125 1.1875 -0.84375q0.390625 -0.53125 0.390625 -1.15625q0 -0.640625 -0.375 -1.109375q-0.375 -0.484375 -1.234375 -0.8125q-0.546875 -0.21875 -2.421875 -0.65625q-1.875 -0.453125 -2.625 -0.859375q-0.96875 -0.515625 -1.453125 -1.265625q-0.46875 -0.75 -0.46875 -1.6875q0 -1.03125 0.578125 -1.921875q0.59375 -0.90625 1.703125 -1.359375q1.125 -0.46875 2.5 -0.46875q1.515625 0 2.671875 0.484375q1.15625 0.484375 1.765625 1.4375q0.625 0.9375 0.671875 2.140625l-1.71875 0.125q-0.140625 -1.28125 -0.953125 -1.9375q-0.796875 -0.671875 -2.359375 -0.671875q-1.625 0 -2.375 0.609375q-0.75 0.59375 -0.75 1.4375q0 0.734375 0.53125 1.203125q0.515625 0.46875 2.703125 0.96875q2.203125 0.5 3.015625 0.875q1.1875 0.546875 1.75 1.390625q0.578125 0.828125 0.578125 1.921875q0 1.09375 -0.625 2.0625q-0.625 0.953125 -1.796875 1.484375q-1.15625 0.53125 -2.609375 0.53125q-1.84375 0 -3.09375 -0.53125q-1.25 -0.546875 -1.96875 -1.625q-0.703125 -1.078125 -0.734375 -2.453125zm12.8498535 -7.3125l0 -1.90625l1.671875 0l0 1.90625l-1.671875 0zm0 11.6875l0 -9.859375l1.671875 0l0 9.859375l-1.671875 0zm3.8322754 0.8125l1.609375 0.25q0.109375 0.75 0.578125 1.09375q0.609375 0.453125 1.6875 0.453125q1.171875 0 1.796875 -0.46875q0.625 -0.453125 0.859375 -1.28125q0.125 -0.515625 0.109375 -2.15625q-1.09375 1.296875 -2.71875 1.296875q-2.03125 0 -3.15625 -1.46875q-1.109375 -1.46875 -1.109375 -3.515625q0 -1.40625 0.515625 -2.59375q0.515625 -1.203125 1.484375 -1.84375q0.96875 -0.65625 2.265625 -0.65625q1.75 0 2.875 1.40625l0 -1.1875l1.546875 0l0 8.515625q0 2.3125 -0.46875 3.265625q-0.46875 0.96875 -1.484375 1.515625q-1.015625 0.5625 -2.5 0.5625q-1.765625 0 -2.859375 -0.796875q-1.078125 -0.796875 -1.03125 -2.390625zm1.375 -5.921875q0 1.953125 0.765625 2.84375q0.78125 0.890625 1.9375 0.890625q1.140625 0 1.921875 -0.890625q0.78125 -0.890625 0.78125 -2.78125q0 -1.8125 -0.8125 -2.71875q-0.796875 -0.921875 -1.921875 -0.921875q-1.109375 0 -1.890625 0.90625q-0.78125 0.890625 -0.78125 2.671875zm9.297607 5.109375l0 -9.859375l1.5 0l0 1.40625q1.09375 -1.625 3.140625 -1.625q0.890625 0 1.640625 0.328125q0.75 0.3125 1.109375 0.84375q0.375 0.515625 0.53125 1.21875q0.09375 0.46875 0.09375 1.625l0 6.0625l-1.671875 0l0 -6.0q0 -1.015625 -0.203125 -1.515625q-0.1875 -0.515625 -0.6875 -0.8125q-0.5 -0.296875 -1.171875 -0.296875q-1.0625 0 -1.84375 0.671875q-0.765625 0.671875 -0.765625 2.578125l0 5.375l-1.671875 0zm17.125732 -3.171875l1.71875 0.21875q-0.40625 1.5 -1.515625 2.34375q-1.09375 0.828125 -2.8125 0.828125q-2.15625 0 -3.421875 -1.328125q-1.265625 -1.328125 -1.265625 -3.734375q0 -2.484375 1.265625 -3.859375q1.28125 -1.375 3.328125 -1.375q1.984375 0 3.234375 1.34375q1.25 1.34375 1.25 3.796875q0 0.140625 -0.015625 0.4375l-7.34375 0q0.09375 1.625 0.921875 2.484375q0.828125 0.859375 2.0625 0.859375q0.90625 0 1.546875 -0.46875q0.65625 -0.484375 1.046875 -1.546875zm-5.484375 -2.703125l5.5 0q-0.109375 -1.234375 -0.625 -1.859375q-0.796875 -0.96875 -2.078125 -0.96875q-1.140625 0 -1.9375 0.78125q-0.78125 0.765625 -0.859375 2.046875zm9.094482 5.875l0 -9.859375l1.5 0l0 1.5q0.578125 -1.046875 1.0625 -1.375q0.484375 -0.34375 1.078125 -0.34375q0.84375 0 1.71875 0.546875l-0.578125 1.546875q-0.609375 -0.359375 -1.234375 -0.359375q-0.546875 0 -0.984375 0.328125q-0.421875 0.328125 -0.609375 0.90625q-0.28125 0.890625 -0.28125 1.953125l0 5.15625l-1.671875 0zm11.552185 0l0 -13.59375l5.109375 0q1.546875 0 2.484375 0.40625q0.953125 0.40625 1.484375 1.265625q0.53125 0.859375 0.53125 1.796875q0 0.875 -0.46875 1.65625q-0.46875 0.765625 -1.4375 1.234375q1.234375 0.359375 1.890625 1.234375q0.671875 0.875 0.671875 2.0625q0 0.953125 -0.40625 1.78125q-0.390625 0.8125 -0.984375 1.265625q-0.59375 0.4375 -1.5 0.671875q-0.890625 0.21875 -2.1875 0.21875l-5.1875 0zm1.796875 -7.890625l2.9375 0q1.203125 0 1.71875 -0.15625q0.6875 -0.203125 1.03125 -0.671875q0.359375 -0.46875 0.359375 -1.1875q0 -0.671875 -0.328125 -1.1875q-0.328125 -0.515625 -0.9375 -0.703125q-0.59375 -0.203125 -2.0625 -0.203125l-2.71875 0l0 4.109375zm0 6.28125l3.390625 0q0.875 0 1.21875 -0.0625q0.625 -0.109375 1.046875 -0.359375q0.421875 -0.265625 0.6875 -0.765625q0.265625 -0.5 0.265625 -1.140625q0 -0.765625 -0.390625 -1.328125q-0.390625 -0.5625 -1.078125 -0.78125q-0.6875 -0.234375 -1.984375 -0.234375l-3.15625 0l0 4.671875zm16.943604 0.390625q-0.9375 0.796875 -1.796875 1.125q-0.859375 0.3125 -1.84375 0.3125q-1.609375 0 -2.484375 -0.78125q-0.875 -0.796875 -0.875 -2.03125q0 -0.734375 0.328125 -1.328125q0.328125 -0.59375 0.859375 -0.953125q0.53125 -0.359375 1.203125 -0.546875q0.5 -0.140625 1.484375 -0.25q2.03125 -0.25 2.984375 -0.578125q0 -0.34375 0 -0.4375q0 -1.015625 -0.46875 -1.4375q-0.640625 -0.5625 -1.90625 -0.5625q-1.171875 0 -1.734375 0.40625q-0.5625 0.40625 -0.828125 1.46875l-1.640625 -0.234375q0.234375 -1.046875 0.734375 -1.6875q0.515625 -0.640625 1.46875 -0.984375q0.96875 -0.359375 2.25 -0.359375q1.265625 0 2.046875 0.296875q0.78125 0.296875 1.15625 0.75q0.375 0.453125 0.515625 1.140625q0.09375 0.421875 0.09375 1.53125l0 2.234375q0 2.328125 0.09375 2.953125q0.109375 0.609375 0.4375 1.171875l-1.75 0q-0.265625 -0.515625 -0.328125 -1.21875zm-0.140625 -3.71875q-0.90625 0.359375 -2.734375 0.625q-1.03125 0.140625 -1.453125 0.328125q-0.421875 0.1875 -0.65625 0.546875q-0.234375 0.359375 -0.234375 0.796875q0 0.671875 0.5 1.125q0.515625 0.4375 1.484375 0.4375q0.96875 0 1.71875 -0.421875q0.75 -0.4375 1.109375 -1.15625q0.265625 -0.578125 0.265625 -1.671875l0 -0.609375zm10.516357 1.328125l1.640625 0.21875q-0.265625 1.6875 -1.375 2.65625q-1.109375 0.953125 -2.734375 0.953125q-2.015625 0 -3.25 -1.3125q-1.21875 -1.328125 -1.21875 -3.796875q0 -1.59375 0.515625 -2.78125q0.53125 -1.203125 1.609375 -1.796875q1.09375 -0.609375 2.359375 -0.609375q1.609375 0 2.625 0.8125q1.015625 0.8125 1.3125 2.3125l-1.625 0.25q-0.234375 -1.0 -0.828125 -1.5q-0.59375 -0.5 -1.421875 -0.5q-1.265625 0 -2.0625 0.90625q-0.78125 0.90625 -0.78125 2.859375q0 1.984375 0.765625 2.890625q0.765625 0.890625 1.984375 0.890625q0.984375 0 1.640625 -0.59375q0.65625 -0.609375 0.84375 -1.859375zm2.90625 3.609375l0 -13.59375l1.671875 0l0 7.75l3.953125 -4.015625l2.15625 0l-3.765625 3.65625l4.140625 6.203125l-2.0625 0l-3.25 -5.03125l-1.171875 1.125l0 3.90625l-1.671875 0zm16.0625 -3.171875l1.71875 0.21875q-0.40625 1.5 -1.515625 2.34375q-1.09375 0.828125 -2.8125 0.828125q-2.15625 0 -3.421875 -1.328125q-1.265625 -1.328125 -1.265625 -3.734375q0 -2.484375 1.265625 -3.859375q1.28125 -1.375 3.328125 -1.375q1.984375 0 3.234375 1.34375q1.25 1.34375 1.25 3.796875q0 0.140625 -0.015625 0.4375l-7.34375 0q0.09375 1.625 0.921875 2.484375q0.828125 0.859375 2.0625 0.859375q0.90625 0 1.546875 -0.46875q0.65625 -0.484375 1.046875 -1.546875zm-5.484375 -2.703125l5.5 0q-0.109375 -1.234375 -0.625 -1.859375q-0.796875 -0.96875 -2.078125 -0.96875q-1.140625 0 -1.9375 0.78125q-0.78125 0.765625 -0.859375 2.046875zm9.110046 5.875l0 -9.859375l1.5 0l0 1.40625q1.09375 -1.625 3.140625 -1.625q0.890625 0 1.640625 0.328125q0.75 0.3125 1.109375 0.84375q0.375 0.515625 0.53125 1.21875q0.09375 0.46875 0.09375 1.625l0 6.0625l-1.671875 0l0 -6.0q0 -1.015625 -0.203125 -1.515625q-0.1875 -0.515625 -0.6875 -0.8125q-0.5 -0.296875 -1.171875 -0.296875q-1.0625 0 -1.84375 0.671875q-0.765625 0.671875 -0.765625 2.578125l0 5.375l-1.671875 0zm16.766357 0l0 -1.25q-0.9375 1.46875 -2.75 1.46875q-1.171875 0 -2.171875 -0.640625q-0.984375 -0.65625 -1.53125 -1.8125q-0.53125 -1.171875 -0.53125 -2.6875q0 -1.46875 0.484375 -2.671875q0.5 -1.203125 1.46875 -1.84375q0.984375 -0.640625 2.203125 -0.640625q0.890625 0 1.578125 0.375q0.703125 0.375 1.140625 0.984375l0 -4.875l1.65625 0l0 13.59375l-1.546875 0zm-5.28125 -4.921875q0 1.890625 0.796875 2.828125q0.8125 0.9375 1.890625 0.9375q1.09375 0 1.859375 -0.890625q0.765625 -0.890625 0.765625 -2.734375q0 -2.015625 -0.78125 -2.953125q-0.78125 -0.953125 -1.921875 -0.953125q-1.109375 0 -1.859375 0.90625q-0.75 0.90625 -0.75 2.859375z" fill-rule="nonzero"></path><path fill="#cfe2f3" d="m631.5197 266.063l134.96057 0l0 46.015747l-134.96057 0z" fill-rule="nonzero"></path><path stroke="#000000" stroke-width="2.0" stroke-linejoin="round" stroke-linecap="butt" d="m631.5197 266.063l134.96057 0l0 46.015747l-134.96057 0z" fill-rule="nonzero"></path><path fill="#000000" d="m642.0197 295.99088l0 -13.59375l9.84375 0l0 1.59375l-8.046875 0l0 4.171875l7.53125 0l0 1.59375l-7.53125 0l0 4.625l8.359375 0l0 1.609375l-10.15625 0zm15.8654175 0l0 -12.0l-4.46875 0l0 -1.59375l10.765625 0l0 1.59375l-4.5 0l0 12.0l-1.796875 0zm17.645996 -4.765625l1.796875 0.453125q-0.5625 2.21875 -2.03125 3.390625q-1.46875 1.15625 -3.59375 1.15625q-2.203125 0 -3.578125 -0.890625q-1.375 -0.90625 -2.09375 -2.59375q-0.71875 -1.703125 -0.71875 -3.65625q0 -2.125 0.796875 -3.703125q0.8125 -1.578125 2.3125 -2.390625q1.5 -0.828125 3.296875 -0.828125q2.046875 0 3.4375 1.046875q1.390625 1.03125 1.9375 2.90625l-1.765625 0.421875q-0.46875 -1.484375 -1.375 -2.15625q-0.90625 -0.6875 -2.265625 -0.6875q-1.5625 0 -2.625 0.75q-1.046875 0.75 -1.484375 2.03125q-0.421875 1.265625 -0.421875 2.609375q0 1.734375 0.5 3.03125q0.515625 1.28125 1.578125 1.921875q1.078125 0.640625 2.3125 0.640625q1.515625 0 2.5625 -0.859375q1.046875 -0.875 1.421875 -2.59375zm3.7698364 4.765625l0 -13.59375l4.6875 0q1.578125 0 2.421875 0.1875q1.15625 0.265625 1.984375 0.96875q1.078125 0.921875 1.609375 2.34375q0.53125 1.40625 0.53125 3.21875q0 1.546875 -0.359375 2.75q-0.359375 1.1875 -0.921875 1.984375q-0.5625 0.78125 -1.234375 1.234375q-0.671875 0.4375 -1.625 0.671875q-0.953125 0.234375 -2.1875 0.234375l-4.90625 0zm1.796875 -1.609375l2.90625 0q1.34375 0 2.109375 -0.25q0.765625 -0.25 1.21875 -0.703125q0.640625 -0.640625 1.0 -1.71875q0.359375 -1.078125 0.359375 -2.625q0 -2.125 -0.703125 -3.265625q-0.703125 -1.15625 -1.703125 -1.546875q-0.71875 -0.28125 -2.328125 -0.28125l-2.859375 0l0 10.390625zm27.15625 0.15625q1.265625 0.859375 2.3125 1.265625l-0.53125 1.25q-1.453125 -0.53125 -2.921875 -1.671875q-1.5 0.84375 -3.328125 0.84375q-1.84375 0 -3.359375 -0.890625q-1.5 -0.890625 -2.3125 -2.5q-0.8125 -1.625 -0.8125 -3.640625q0 -2.015625 0.8125 -3.65625q0.828125 -1.65625 2.328125 -2.515625q1.515625 -0.875 3.375 -0.875q1.890625 0 3.390625 0.90625q1.515625 0.890625 2.3125 2.5q0.796875 1.609375 0.796875 3.625q0 1.6875 -0.515625 3.03125q-0.515625 1.328125 -1.546875 2.328125zm-3.953125 -2.296875q1.5625 0.421875 2.5625 1.296875q1.59375 -1.453125 1.59375 -4.359375q0 -1.65625 -0.5625 -2.875q-0.5625 -1.234375 -1.640625 -1.921875q-1.078125 -0.6875 -2.421875 -0.6875q-2.015625 0 -3.34375 1.390625q-1.328125 1.375 -1.328125 4.109375q0 2.65625 1.3125 4.078125q1.3125 1.40625 3.359375 1.40625q0.953125 0 1.8125 -0.359375q-0.84375 -0.546875 -1.78125 -0.78125l0.4375 -1.296875zm14.402039 3.75l0 -1.453125q-1.140625 1.671875 -3.125 1.671875q-0.859375 0 -1.625 -0.328125q-0.75 -0.34375 -1.125 -0.84375q-0.359375 -0.5 -0.515625 -1.234375q-0.09375 -0.5 -0.09375 -1.5625l0 -6.109375l1.671875 0l0 5.46875q0 1.3125 0.09375 1.765625q0.15625 0.65625 0.671875 1.03125q0.515625 0.375 1.265625 0.375q0.75 0 1.40625 -0.375q0.65625 -0.390625 0.921875 -1.046875q0.28125 -0.671875 0.28125 -1.9375l0 -5.28125l1.671875 0l0 9.859375l-1.5 0zm10.672607 -3.171875l1.71875 0.21875q-0.40625 1.5 -1.515625 2.34375q-1.09375 0.828125 -2.8125 0.828125q-2.15625 0 -3.421875 -1.328125q-1.265625 -1.328125 -1.265625 -3.734375q0 -2.484375 1.265625 -3.859375q1.28125 -1.375 3.328125 -1.375q1.984375 0 3.234375 1.34375q1.25 1.34375 1.25 3.796875q0 0.140625 -0.015625 0.4375l-7.34375 0q0.09375 1.625 0.921875 2.484375q0.828125 0.859375 2.0625 0.859375q0.90625 0 1.546875 -0.46875q0.65625 -0.484375 1.046875 -1.546875zm-5.484375 -2.703125l5.5 0q-0.109375 -1.234375 -0.625 -1.859375q-0.796875 -0.96875 -2.078125 -0.96875q-1.140625 0 -1.9375 0.78125q-0.78125 0.765625 -0.859375 2.046875zm15.563171 5.875l0 -1.453125q-1.140625 1.671875 -3.125 1.671875q-0.859375 0 -1.625 -0.328125q-0.75 -0.34375 -1.125 -0.84375q-0.359375 -0.5 -0.515625 -1.234375q-0.09375 -0.5 -0.09375 -1.5625l0 -6.109375l1.671875 0l0 5.46875q0 1.3125 0.09375 1.765625q0.15625 0.65625 0.671875 1.03125q0.515625 0.375 1.265625 0.375q0.75 0 1.40625 -0.375q0.65625 -0.390625 0.921875 -1.046875q0.28125 -0.671875 0.28125 -1.9375l0 -5.28125l1.671875 0l0 9.859375l-1.5 0zm10.672607 -3.171875l1.71875 0.21875q-0.40625 1.5 -1.515625 2.34375q-1.09375 0.828125 -2.8125 0.828125q-2.15625 0 -3.421875 -1.328125q-1.265625 -1.328125 -1.265625 -3.734375q0 -2.484375 1.265625 -3.859375q1.28125 -1.375 3.328125 -1.375q1.984375 0 3.234375 1.34375q1.25 1.34375 1.25 3.796875q0 0.140625 -0.015625 0.4375l-7.34375 0q0.09375 1.625 0.921875 2.484375q0.828125 0.859375 2.0625 0.859375q0.90625 0 1.546875 -0.46875q0.65625 -0.484375 1.046875 -1.546875zm-5.484375 -2.703125l5.5 0q-0.109375 -1.234375 -0.625 -1.859375q-0.796875 -0.96875 -2.078125 -0.96875q-1.140625 0 -1.9375 0.78125q-0.78125 0.765625 -0.859375 2.046875z" fill-rule="nonzero"></path><path fill="#cfe2f3" d="m322.0 302.00262l98.01575 0l0 54.015747l-98.01575 0z" fill-rule="nonzero"></path><path stroke="#000000" stroke-width="2.0" stroke-linejoin="round" stroke-linecap="butt" d="m322.0 302.00262l98.01575 0l0 54.015747l-98.01575 0z" fill-rule="nonzero"></path><path fill="#000000" d="m332.51562 324.9305l0 -13.59375l1.8125 0l0 5.578125l7.0625 0l0 -5.578125l1.796875 0l0 13.59375l-1.796875 0l0 -6.40625l-7.0625 0l0 6.40625l-1.8125 0zm16.879211 0l0 -12.0l-4.46875 0l0 -1.59375l10.765625 0l0 1.59375l-4.5 0l0 12.0l-1.796875 0zm11.395966 0l0 -12.0l-4.46875 0l0 -1.59375l10.765625 0l0 1.59375l-4.5 0l0 12.0l-1.796875 0zm7.9428406 0l0 -13.59375l5.125 0q1.359375 0 2.078125 0.125q1.0 0.171875 1.671875 0.640625q0.671875 0.46875 1.078125 1.3125q0.421875 0.84375 0.421875 1.84375q0 1.734375 -1.109375 2.9375q-1.09375 1.203125 -3.984375 1.203125l-3.484375 0l0 5.53125l-1.796875 0zm1.796875 -7.140625l3.515625 0q1.75 0 2.46875 -0.640625q0.734375 -0.65625 0.734375 -1.828125q0 -0.859375 -0.4375 -1.46875q-0.421875 -0.609375 -1.125 -0.796875q-0.453125 -0.125 -1.671875 -0.125l-3.484375 0l0 4.859375z" fill-rule="nonzero"></path><path fill="#000000" d="m332.25 350.71176l0 -13.640625l1.53125 0l0 1.28125q0.53125 -0.75 1.203125 -1.125q0.6875 -0.375 1.640625 -0.375q1.265625 0 2.234375 0.65625q0.96875 0.640625 1.453125 1.828125q0.5 1.1875 0.5 2.59375q0 1.515625 -0.546875 2.734375q-0.546875 1.203125 -1.578125 1.84375q-1.03125 0.640625 -2.171875 0.640625q-0.84375 0 -1.515625 -0.34375q-0.65625 -0.359375 -1.078125 -0.890625l0 4.796875l-1.671875 0zm1.515625 -8.65625q0 1.90625 0.765625 2.8125q0.78125 0.90625 1.875 0.90625q1.109375 0 1.890625 -0.9375q0.796875 -0.9375 0.796875 -2.921875q0 -1.875 -0.78125 -2.8125q-0.765625 -0.9375 -1.84375 -0.9375q-1.0625 0 -1.890625 1.0q-0.8125 1.0 -0.8125 2.890625zm8.844482 4.875l0 -9.859375l1.5 0l0 1.5q0.578125 -1.046875 1.0625 -1.375q0.484375 -0.34375 1.078125 -0.34375q0.84375 0 1.71875 0.546875l-0.578125 1.546875q-0.609375 -0.359375 -1.234375 -0.359375q-0.546875 0 -0.984375 0.328125q-0.421875 0.328125 -0.609375 0.90625q-0.28125 0.890625 -0.28125 1.953125l0 5.15625l-1.671875 0zm5.6032715 -4.921875q0 -2.734375 1.53125 -4.0625q1.265625 -1.09375 3.09375 -1.09375q2.03125 0 3.3125 1.34375q1.296875 1.328125 1.296875 3.671875q0 1.90625 -0.578125 3.0q-0.5625 1.078125 -1.65625 1.6875q-1.078125 0.59375 -2.375 0.59375q-2.0625 0 -3.34375 -1.328125q-1.28125 -1.328125 -1.28125 -3.8125zm1.71875 0q0 1.890625 0.828125 2.828125q0.828125 0.9375 2.078125 0.9375q1.25 0 2.0625 -0.9375q0.828125 -0.953125 0.828125 -2.890625q0 -1.828125 -0.828125 -2.765625q-0.828125 -0.9375 -2.0625 -0.9375q-1.25 0 -2.078125 0.9375q-0.828125 0.9375 -0.828125 2.828125zm8.172607 4.921875l3.59375 -5.125l-3.328125 -4.734375l2.09375 0l1.515625 2.3125q0.421875 0.65625 0.671875 1.109375q0.421875 -0.609375 0.765625 -1.09375l1.65625 -2.328125l1.984375 0l-3.390625 4.640625l3.65625 5.21875l-2.046875 0l-2.03125 -3.0625l-0.53125 -0.828125l-2.59375 3.890625l-2.015625 0zm10.359375 3.796875l-0.171875 -1.5625q0.546875 0.140625 0.953125 0.140625q0.546875 0 0.875 -0.1875q0.34375 -0.1875 0.5625 -0.515625q0.15625 -0.25 0.5 -1.25q0.046875 -0.140625 0.15625 -0.40625l-3.734375 -9.875l1.796875 0l2.046875 5.71875q0.40625 1.078125 0.71875 2.28125q0.28125 -1.15625 0.6875 -2.25l2.09375 -5.75l1.671875 0l-3.75 10.03125q-0.59375 1.625 -0.9375 2.234375q-0.4375 0.828125 -1.015625 1.203125q-0.578125 0.390625 -1.375 0.390625q-0.484375 0 -1.078125 -0.203125z" fill-rule="nonzero"></path><path fill="#cfe2f3" d="m420.00787 302.0l173.82678 0l0 84.97638l-173.82678 0z" fill-rule="nonzero"></path><path stroke="#000000" stroke-width="2.0" stroke-linejoin="round" stroke-linecap="butt" d="m420.00787 302.0l173.82678 0l0 84.97638l-173.82678 0z" fill-rule="nonzero"></path><path fill="#000000" d="m430.3985 340.4082l0 -13.59375l1.796875 0l0 6.734375l6.765625 -6.734375l2.4375 0l-5.703125 5.5l5.953125 8.09375l-2.375 0l-4.84375 -6.890625l-2.234375 2.171875l0 4.71875l-1.796875 0zm19.052948 -3.171875l1.71875 0.21875q-0.40625 1.5 -1.515625 2.34375q-1.09375 0.828125 -2.8125 0.828125q-2.15625 0 -3.421875 -1.328125q-1.265625 -1.328125 -1.265625 -3.734375q0 -2.484375 1.265625 -3.859375q1.28125 -1.375 3.328125 -1.375q1.984375 0 3.234375 1.34375q1.25 1.34375 1.25 3.796875q0 0.140625 -0.015625 0.4375l-7.34375 0q0.09375 1.625 0.921875 2.484375q0.828125 0.859375 2.0625 0.859375q0.90625 0 1.546875 -0.46875q0.65625 -0.484375 1.046875 -1.546875zm-5.484375 -2.703125l5.5 0q-0.109375 -1.234375 -0.625 -1.859375q-0.796875 -0.96875 -2.078125 -0.96875q-1.140625 0 -1.9375 0.78125q-0.78125 0.765625 -0.859375 2.046875zm9.031982 9.671875l-0.171875 -1.5625q0.546875 0.140625 0.953125 0.140625q0.546875 0 0.875 -0.1875q0.34375 -0.1875 0.5625 -0.515625q0.15625 -0.25 0.5 -1.25q0.046875 -0.140625 0.15625 -0.40625l-3.734375 -9.875l1.796875 0l2.046875 5.71875q0.40625 1.078125 0.71875 2.28125q0.28125 -1.15625 0.6875 -2.25l2.09375 -5.75l1.671875 0l-3.75 10.03125q-0.59375 1.625 -0.9375 2.234375q-0.4375 0.828125 -1.015625 1.203125q-0.578125 0.390625 -1.375 0.390625q-0.484375 0 -1.078125 -0.203125zm18.261414 -3.796875l0 -12.0l-4.46875 0l0 -1.59375l10.765625 0l0 1.59375l-4.5 0l0 12.0l-1.796875 0zm7.708496 0l0 -9.859375l1.5 0l0 1.5q0.578125 -1.046875 1.0625 -1.375q0.484375 -0.34375 1.078125 -0.34375q0.84375 0 1.71875 0.546875l-0.578125 1.546875q-0.609375 -0.359375 -1.234375 -0.359375q-0.546875 0 -0.984375 0.328125q-0.421875 0.328125 -0.609375 0.90625q-0.28125 0.890625 -0.28125 1.953125l0 5.15625l-1.671875 0zm12.665802 -1.21875q-0.9375 0.796875 -1.796875 1.125q-0.859375 0.3125 -1.84375 0.3125q-1.609375 0 -2.484375 -0.78125q-0.875 -0.796875 -0.875 -2.03125q0 -0.734375 0.328125 -1.328125q0.328125 -0.59375 0.859375 -0.953125q0.53125 -0.359375 1.203125 -0.546875q0.5 -0.140625 1.484375 -0.25q2.03125 -0.25 2.984375 -0.578125q0 -0.34375 0 -0.4375q0 -1.015625 -0.46875 -1.4375q-0.640625 -0.5625 -1.90625 -0.5625q-1.171875 0 -1.734375 0.40625q-0.5625 0.40625 -0.828125 1.46875l-1.640625 -0.234375q0.234375 -1.046875 0.734375 -1.6875q0.515625 -0.640625 1.46875 -0.984375q0.96875 -0.359375 2.25 -0.359375q1.265625 0 2.046875 0.296875q0.78125 0.296875 1.15625 0.75q0.375 0.453125 0.515625 1.140625q0.09375 0.421875 0.09375 1.53125l0 2.234375q0 2.328125 0.09375 2.953125q0.109375 0.609375 0.4375 1.171875l-1.75 0q-0.265625 -0.515625 -0.328125 -1.21875zm-0.140625 -3.71875q-0.90625 0.359375 -2.734375 0.625q-1.03125 0.140625 -1.453125 0.328125q-0.421875 0.1875 -0.65625 0.546875q-0.234375 0.359375 -0.234375 0.796875q0 0.671875 0.5 1.125q0.515625 0.4375 1.484375 0.4375q0.96875 0 1.71875 -0.421875q0.75 -0.4375 1.109375 -1.15625q0.265625 -0.578125 0.265625 -1.671875l0 -0.609375zm4.078827 4.9375l0 -9.859375l1.5 0l0 1.40625q1.09375 -1.625 3.140625 -1.625q0.890625 0 1.640625 0.328125q0.75 0.3125 1.109375 0.84375q0.375 0.515625 0.53125 1.21875q0.09375 0.46875 0.09375 1.625l0 6.0625l-1.671875 0l0 -6.0q0 -1.015625 -0.203125 -1.515625q-0.1875 -0.515625 -0.6875 -0.8125q-0.5 -0.296875 -1.171875 -0.296875q-1.0625 0 -1.84375 0.671875q-0.765625 0.671875 -0.765625 2.578125l0 5.375l-1.671875 0zm9.703857 -2.9375l1.65625 -0.265625q0.140625 1.0 0.765625 1.53125q0.640625 0.515625 1.78125 0.515625q1.15625 0 1.703125 -0.46875q0.5625 -0.46875 0.5625 -1.09375q0 -0.5625 -0.484375 -0.890625q-0.34375 -0.21875 -1.703125 -0.5625q-1.84375 -0.46875 -2.5625 -0.796875q-0.703125 -0.34375 -1.078125 -0.9375q-0.359375 -0.609375 -0.359375 -1.328125q0 -0.65625 0.296875 -1.21875q0.3125 -0.5625 0.828125 -0.9375q0.390625 -0.28125 1.0625 -0.484375q0.671875 -0.203125 1.4375 -0.203125q1.171875 0 2.046875 0.34375q0.8749695 0.328125 1.2812195 0.90625q0.421875 0.5625 0.578125 1.515625l-1.6249695 0.21875q-0.109375 -0.75 -0.65625 -1.171875q-0.53125 -0.4375 -1.5 -0.4375q-1.15625 0 -1.640625 0.390625q-0.484375 0.375 -0.484375 0.875q0 0.328125 0.203125 0.59375q0.203125 0.265625 0.640625 0.4375q0.25 0.09375 1.46875 0.4375q1.765625 0.46875 2.46875 0.765625q0.7030945 0.296875 1.0937195 0.875q0.40625 0.578125 0.40625 1.4375q0 0.828125 -0.484375 1.578125q-0.484375 0.734375 -1.4062195 1.140625q-0.921875 0.390625 -2.078125 0.390625q-1.921875 0 -2.9375 -0.796875q-1.0 -0.796875 -1.28125 -2.359375zm9.9999695 6.71875l0 -13.640625l1.53125 0l0 1.28125q0.53125 -0.75 1.203125 -1.125q0.6875 -0.375 1.640625 -0.375q1.265625 0 2.234375 0.65625q0.96875 0.640625 1.453125 1.828125q0.5 1.1875 0.5 2.59375q0 1.515625 -0.546875 2.734375q-0.546875 1.203125 -1.578125 1.84375q-1.03125 0.640625 -2.171875 0.640625q-0.84375 0 -1.515625 -0.34375q-0.65625 -0.359375 -1.078125 -0.890625l0 4.796875l-1.671875 0zm1.515625 -8.65625q0 1.90625 0.765625 2.8125q0.78125 0.90625 1.875 0.90625q1.109375 0 1.890625 -0.9375q0.796875 -0.9375 0.796875 -2.921875q0 -1.875 -0.78125 -2.8125q-0.765625 -0.9375 -1.84375 -0.9375q-1.0625 0 -1.890625 1.0q-0.8125 1.0 -0.8125 2.890625zm15.297607 3.65625q-0.9375 0.796875 -1.796875 1.125q-0.859375 0.3125 -1.84375 0.3125q-1.609375 0 -2.484375 -0.78125q-0.875 -0.796875 -0.875 -2.03125q0 -0.734375 0.328125 -1.328125q0.328125 -0.59375 0.859375 -0.953125q0.53125 -0.359375 1.203125 -0.546875q0.5 -0.140625 1.484375 -0.25q2.03125 -0.25 2.984375 -0.578125q0 -0.34375 0 -0.4375q0 -1.015625 -0.46875 -1.4375q-0.640625 -0.5625 -1.90625 -0.5625q-1.171875 0 -1.734375 0.40625q-0.5625 0.40625 -0.828125 1.46875l-1.640625 -0.234375q0.234375 -1.046875 0.734375 -1.6875q0.515625 -0.640625 1.46875 -0.984375q0.96875 -0.359375 2.25 -0.359375q1.265625 0 2.046875 0.296875q0.78125 0.296875 1.15625 0.75q0.375 0.453125 0.515625 1.140625q0.09375 0.421875 0.09375 1.53125l0 2.234375q0 2.328125 0.09375 2.953125q0.109375 0.609375 0.4375 1.171875l-1.75 0q-0.265625 -0.515625 -0.328125 -1.21875zm-0.140625 -3.71875q-0.90625 0.359375 -2.734375 0.625q-1.03125 0.140625 -1.453125 0.328125q-0.421875 0.1875 -0.65625 0.546875q-0.234375 0.359375 -0.234375 0.796875q0 0.671875 0.5 1.125q0.515625 0.4375 1.484375 0.4375q0.96875 0 1.71875 -0.421875q0.75 -0.4375 1.109375 -1.15625q0.265625 -0.578125 0.265625 -1.671875l0 -0.609375zm4.0632324 4.9375l0 -9.859375l1.5 0l0 1.5q0.578125 -1.046875 1.0625 -1.375q0.484375 -0.34375 1.078125 -0.34375q0.84375 0 1.71875 0.546875l-0.578125 1.546875q-0.609375 -0.359375 -1.234375 -0.359375q-0.546875 0 -0.984375 0.328125q-0.421875 0.328125 -0.609375 0.90625q-0.28125 0.890625 -0.28125 1.953125l0 5.15625l-1.671875 0zm12.9782715 -3.171875l1.71875 0.21875q-0.40625 1.5 -1.515625 2.34375q-1.09375 0.828125 -2.8125 0.828125q-2.15625 0 -3.421875 -1.328125q-1.265625 -1.328125 -1.265625 -3.734375q0 -2.484375 1.265625 -3.859375q1.28125 -1.375 3.328125 -1.375q1.984375 0 3.234375 1.34375q1.25 1.34375 1.25 3.796875q0 0.140625 -0.015625 0.4375l-7.34375 0q0.09375 1.625 0.921875 2.484375q0.828125 0.859375 2.0625 0.859375q0.90625 0 1.546875 -0.46875q0.65625 -0.484375 1.046875 -1.546875zm-5.484375 -2.703125l5.5 0q-0.109375 -1.234375 -0.625 -1.859375q-0.796875 -0.96875 -2.078125 -0.96875q-1.140625 0 -1.9375 0.78125q-0.78125 0.765625 -0.859375 2.046875zm9.110107 5.875l0 -9.859375l1.5 0l0 1.40625q1.09375 -1.625 3.140625 -1.625q0.890625 0 1.640625 0.328125q0.75 0.3125 1.109375 0.84375q0.375 0.515625 0.53125 1.21875q0.09375 0.46875 0.09375 1.625l0 6.0625l-1.671875 0l0 -6.0q0 -1.015625 -0.203125 -1.515625q-0.1875 -0.515625 -0.6875 -0.8125q-0.5 -0.296875 -1.171875 -0.296875q-1.0625 0 -1.84375 0.671875q-0.765625 0.671875 -0.765625 2.578125l0 5.375l-1.671875 0zm16.813232 -3.609375l1.640625 0.21875q-0.265625 1.6875 -1.375 2.65625q-1.109375 0.953125 -2.734375 0.953125q-2.015625 0 -3.25 -1.3125q-1.21875 -1.328125 -1.21875 -3.796875q0 -1.59375 0.515625 -2.78125q0.53125 -1.203125 1.609375 -1.796875q1.09375 -0.609375 2.359375 -0.609375q1.609375 0 2.625 0.8125q1.015625 0.8125 1.3125 2.3125l-1.625 0.25q-0.234375 -1.0 -0.828125 -1.5q-0.59375 -0.5 -1.421875 -0.5q-1.265625 0 -2.0625 0.90625q-0.78125 0.90625 -0.78125 2.859375q0 1.984375 0.765625 2.890625q0.765625 0.890625 1.984375 0.890625q0.984375 0 1.640625 -0.59375q0.65625 -0.609375 0.84375 -1.859375zm2.8125 7.40625l-0.171875 -1.5625q0.546875 0.140625 0.953125 0.140625q0.546875 0 0.875 -0.1875q0.34375 -0.1875 0.5625 -0.515625q0.15625 -0.25 0.5 -1.25q0.046875 -0.140625 0.15625 -0.40625l-3.734375 -9.875l1.796875 0l2.046875 5.71875q0.40625 1.078125 0.71875 2.28125q0.28125 -1.15625 0.6875 -2.25l2.09375 -5.75l1.671875 0l-3.75 10.03125q-0.59375 1.625 -0.9375 2.234375q-0.4375 0.828125 -1.015625 1.203125q-0.578125 0.390625 -1.375 0.390625q-0.484375 0 -1.078125 -0.203125z" fill-rule="nonzero"></path><path fill="#000000" d="m429.961 363.2207l1.609375 0.25q0.109375 0.75 0.578125 1.09375q0.609375 0.453125 1.6875 0.453125q1.171875 0 1.796875 -0.46875q0.625 -0.453125 0.859375 -1.28125q0.125 -0.515625 0.109375 -2.15625q-1.09375 1.296875 -2.71875 1.296875q-2.03125 0 -3.15625 -1.46875q-1.109375 -1.46875 -1.109375 -3.515625q0 -1.40625 0.515625 -2.59375q0.515625 -1.203125 1.484375 -1.84375q0.96875 -0.65625 2.265625 -0.65625q1.75 0 2.875 1.40625l0 -1.1875l1.546875 0l0 8.515625q0 2.3125 -0.46875 3.265625q-0.46875 0.96875 -1.484375 1.515625q-1.015625 0.5625 -2.5 0.5625q-1.765625 0 -2.859375 -0.796875q-1.078125 -0.796875 -1.03125 -2.390625zm1.375 -5.921875q0 1.953125 0.765625 2.84375q0.78125 0.890625 1.9375 0.890625q1.140625 0 1.921875 -0.890625q0.78125 -0.890625 0.78125 -2.78125q0 -1.8125 -0.8125 -2.71875q-0.796875 -0.921875 -1.921875 -0.921875q-1.109375 0 -1.890625 0.90625q-0.78125 0.890625 -0.78125 2.671875zm9.547607 5.109375l0 -13.59375l6.03125 0q1.8125 0 2.75 0.359375q0.953125 0.359375 1.515625 1.296875q0.5625 0.921875 0.5625 2.046875q0 1.453125 -0.9375 2.453125q-0.921875 0.984375 -2.890625 1.25q0.71875 0.34375 1.09375 0.671875q0.78125 0.734375 1.484375 1.8125l2.375 3.703125l-2.265625 0l-1.796875 -2.828125q-0.796875 -1.21875 -1.3125 -1.875q-0.5 -0.65625 -0.90625 -0.90625q-0.40625 -0.265625 -0.8125 -0.359375q-0.3125 -0.078125 -1.015625 -0.078125l-2.078125 0l0 6.046875l-1.796875 0zm1.796875 -7.59375l3.859375 0q1.234375 0 1.921875 -0.25q0.703125 -0.265625 1.0625 -0.828125q0.375 -0.5625 0.375 -1.21875q0 -0.96875 -0.703125 -1.578125q-0.703125 -0.625 -2.21875 -0.625l-4.296875 0l0 4.5zm11.644806 7.59375l0 -13.59375l5.125 0q1.359375 0 2.078125 0.125q1.0 0.171875 1.671875 0.640625q0.671875 0.46875 1.078125 1.3125q0.421875 0.84375 0.421875 1.84375q0 1.734375 -1.109375 2.9375q-1.09375 1.203125 -3.984375 1.203125l-3.484375 0l0 5.53125l-1.796875 0zm1.796875 -7.140625l3.515625 0q1.75 0 2.46875 -0.640625q0.734375 -0.65625 0.734375 -1.828125q0 -0.859375 -0.4375 -1.46875q-0.421875 -0.609375 -1.125 -0.796875q-0.453125 -0.125 -1.671875 -0.125l-3.484375 0l0 4.859375zm20.349823 2.375l1.796875 0.453125q-0.5625 2.21875 -2.03125 3.390625q-1.46875 1.15625 -3.59375 1.15625q-2.203125 0 -3.578125 -0.890625q-1.375 -0.90625 -2.09375 -2.59375q-0.71875 -1.703125 -0.71875 -3.65625q0 -2.125 0.796875 -3.703125q0.8125 -1.578125 2.3125 -2.390625q1.5 -0.828125 3.296875 -0.828125q2.046875 0 3.4375 1.046875q1.390625 1.03125 1.9375 2.90625l-1.765625 0.421875q-0.46875 -1.484375 -1.375 -2.15625q-0.90625 -0.6875 -2.265625 -0.6875q-1.5625 0 -2.625 0.75q-1.046875 0.75 -1.484375 2.03125q-0.421875 1.265625 -0.421875 2.609375q0 1.734375 0.5 3.03125q0.515625 1.28125 1.578125 1.921875q1.078125 0.640625 2.3125 0.640625q1.515625 0 2.5625 -0.859375q1.046875 -0.875 1.421875 -2.59375zm9.046875 4.765625l0 -13.59375l9.171875 0l0 1.59375l-7.375 0l0 4.21875l6.375 0l0 1.609375l-6.375 0l0 6.171875l-1.796875 0zm11.067871 0l0 -9.859375l1.5 0l0 1.5q0.578125 -1.046875 1.0625 -1.375q0.484375 -0.34375 1.078125 -0.34375q0.84375 0 1.71875 0.546875l-0.578125 1.546875q-0.609375 -0.359375 -1.234375 -0.359375q-0.546875 0 -0.984375 0.328125q-0.421875 0.328125 -0.609375 0.90625q-0.28125 0.890625 -0.28125 1.953125l0 5.15625l-1.671875 0zm5.603302 -4.921875q0 -2.734375 1.53125 -4.0625q1.265625 -1.09375 3.09375 -1.09375q2.03125 0 3.3125 1.34375q1.296875 1.328125 1.296875 3.671875q0 1.90625 -0.578125 3.0q-0.5625 1.078125 -1.65625 1.6875q-1.078125 0.59375 -2.375 0.59375q-2.0625 0 -3.34375 -1.328125q-1.28125 -1.328125 -1.28125 -3.8125zm1.71875 0q0 1.890625 0.828125 2.828125q0.828125 0.9375 2.078125 0.9375q1.25 0 2.0625 -0.9375q0.828125 -0.953125 0.828125 -2.890625q0 -1.828125 -0.828125 -2.765625q-0.828125 -0.9375 -2.0625 -0.9375q-1.25 0 -2.078125 0.9375q-0.828125 0.9375 -0.828125 2.828125zm9.281952 4.921875l0 -9.859375l1.5 0l0 1.40625q1.09375 -1.625 3.140625 -1.625q0.890625 0 1.640625 0.328125q0.75 0.3125 1.109375 0.84375q0.375 0.515625 0.53125 1.21875q0.09375 0.46875 0.09375 1.625l0 6.0625l-1.671875 0l0 -6.0q0 -1.015625 -0.203125 -1.515625q-0.1875 -0.515625 -0.6875 -0.8125q-0.5 -0.296875 -1.171875 -0.296875q-1.0625 0 -1.84375 0.671875q-0.765625 0.671875 -0.765625 2.578125l0 5.375l-1.671875 0zm14.031982 -1.5l0.234375 1.484375q-0.703125 0.140625 -1.265625 0.140625q-0.90625 0 -1.40625 -0.28125q-0.5 -0.296875 -0.703125 -0.75q-0.203125 -0.46875 -0.203125 -1.984375l0 -5.65625l-1.234375 0l0 -1.3125l1.234375 0l0 -2.4375l1.65625 -1.0l0 3.4375l1.6875 0l0 1.3125l-1.6875 0l0 5.75q0 0.71875 0.078125 0.921875q0.09375 0.203125 0.296875 0.328125q0.203125 0.125 0.578125 0.125q0.265625 0 0.734375 -0.078125zm8.277039 -1.671875l1.71875 0.21875q-0.40625 1.5 -1.515625 2.34375q-1.09375 0.828125 -2.8125 0.828125q-2.15625 0 -3.421875 -1.328125q-1.265625 -1.328125 -1.265625 -3.734375q0 -2.484375 1.265625 -3.859375q1.28125 -1.375 3.328125 -1.375q1.984375 0 3.234375 1.34375q1.25 1.34375 1.25 3.796875q0 0.140625 -0.015625 0.4375l-7.34375 0q0.09375 1.625 0.921875 2.484375q0.828125 0.859375 2.0625 0.859375q0.90625 0 1.546875 -0.46875q0.65625 -0.484375 1.046875 -1.546875zm-5.484375 -2.703125l5.5 0q-0.109375 -1.234375 -0.625 -1.859375q-0.796875 -0.96875 -2.078125 -0.96875q-1.140625 0 -1.9375 0.78125q-0.78125 0.765625 -0.859375 2.046875zm9.110107 5.875l0 -9.859375l1.5 0l0 1.40625q1.09375 -1.625 3.140625 -1.625q0.890625 0 1.640625 0.328125q0.75 0.3125 1.109375 0.84375q0.375 0.515625 0.53125 1.21875q0.09375 0.46875 0.09375 1.625l0 6.0625l-1.671875 0l0 -6.0q0 -1.015625 -0.203125 -1.515625q-0.1875 -0.515625 -0.6875 -0.8125q-0.5 -0.296875 -1.171875 -0.296875q-1.0625 0 -1.84375 0.671875q-0.765625 0.671875 -0.765625 2.578125l0 5.375l-1.671875 0zm16.766357 0l0 -1.25q-0.9375 1.46875 -2.75 1.46875q-1.171875 0 -2.171875 -0.640625q-0.984375 -0.65625 -1.53125 -1.8125q-0.53125 -1.171875 -0.53125 -2.6875q0 -1.46875 0.484375 -2.671875q0.5 -1.203125 1.46875 -1.84375q0.984375 -0.640625 2.203125 -0.640625q0.890625 0 1.578125 0.375q0.703125 0.375 1.140625 0.984375l0 -4.875l1.65625 0l0 13.59375l-1.546875 0zm-5.28125 -4.921875q0 1.890625 0.796875 2.828125q0.8125 0.9375 1.890625 0.9375q1.09375 0 1.859375 -0.890625q0.765625 -0.890625 0.765625 -2.734375q0 -2.015625 -0.78125 -2.953125q-0.78125 -0.953125 -1.921875 -0.953125q-1.109375 0 -1.859375 0.90625q-0.75 0.90625 -0.75 2.859375z" fill-rule="nonzero"></path><path fill="#000000" fill-opacity="0.0" d="m240.0 368.87402l178.07874 0" fill-rule="nonzero"></path><path stroke="#000000" stroke-width="2.0" stroke-linejoin="round" stroke-linecap="butt" d="m240.0 368.87402l166.07874 0" fill-rule="evenodd"></path><path fill="#000000" stroke="#000000" stroke-width="2.0" stroke-linecap="butt" d="m406.07874 372.1775l9.076202 -3.3034668l-9.076202 -3.3034668z" fill-rule="evenodd"></path><path fill="#000000" fill-opacity="0.0" d="m116.48819 296.04987l56.06299 0" fill-rule="nonzero"></path><path stroke="#000000" stroke-width="2.0" stroke-linejoin="round" stroke-linecap="butt" d="m116.48819 296.04987l44.06299 0" fill-rule="evenodd"></path><path fill="#000000" stroke="#000000" stroke-width="2.0" stroke-linecap="butt" d="m160.55118 299.35333l9.076202 -3.3034668l-9.076202 -3.3034668z" fill-rule="evenodd"></path><path fill="#cfe2f3" d="m172.53543 403.68765l0 -215.27557l71.14961 0l0 215.27557z" fill-rule="nonzero"></path><path stroke="#000000" stroke-width="1.0" stroke-linejoin="round" stroke-linecap="butt" d="m172.53543 403.68765l0 -215.27557l71.14961 0l0 215.27557z" fill-rule="nonzero"></path><path fill="#000000" d="m215.03023 354.81836l-13.59375 0l0 -1.796875l11.984375 0l0 -6.703125l1.609375 0l0 8.5zm-4.921875 -9.610077q-2.734375 0 -4.0625 -1.53125q-1.09375 -1.265625 -1.09375 -3.09375q0 -2.03125 1.34375 -3.3125q1.328125 -1.296875 3.671875 -1.296875q1.90625 0 3.0 0.578125q1.078125 0.5625 1.6875 1.65625q0.59375 1.078125 0.59375 2.375q0 2.0625 -1.328125 3.34375q-1.328125 1.28125 -3.8125 1.28125zm0 -1.71875q1.890625 0 2.828125 -0.828125q0.9375 -0.828125 0.9375 -2.078125q0 -1.25 -0.9375 -2.0625q-0.953125 -0.828125 -2.890625 -0.828125q-1.828125 0 -2.765625 0.828125q-0.9375 0.828125 -0.9375 2.0625q0 1.25 0.9375 2.078125q0.9375 0.828125 2.828125 0.828125zm3.703125 -15.719482q0.796875 0.9375 1.125 1.796875q0.3125 0.859375 0.3125 1.84375q0 1.609375 -0.78125 2.484375q-0.796875 0.875 -2.03125 0.875q-0.734375 0 -1.328125 -0.328125q-0.59375 -0.328125 -0.953125 -0.859375q-0.359375 -0.53125 -0.546875 -1.203125q-0.140625 -0.5 -0.25 -1.484375q-0.25 -2.03125 -0.578125 -2.984375q-0.34375 0 -0.4375 0q-1.015625 0 -1.4375 0.46875q-0.5625 0.640625 -0.5625 1.90625q0 1.171875 0.40625 1.734375q0.40625 0.5625 1.46875 0.828125l-0.234375 1.640625q-1.046875 -0.234375 -1.6875 -0.734375q-0.640625 -0.515625 -0.984375 -1.46875q-0.359375 -0.96875 -0.359375 -2.25q0 -1.265625 0.296875 -2.046875q0.296875 -0.78125 0.75 -1.15625q0.453125 -0.375 1.140625 -0.515625q0.421875 -0.09375 1.53125 -0.09375l2.234375 0q2.328125 0 2.953125 -0.09375q0.609375 -0.109375 1.171875 -0.4375l0 1.75q-0.515625 0.265625 -1.21875 0.328125zm-3.71875 0.140625q0.359375 0.90625 0.625 2.734375q0.140625 1.03125 0.328125 1.453125q0.1875 0.421875 0.546875 0.65625q0.359375 0.234375 0.796875 0.234375q0.671875 0 1.125 -0.5q0.4375 -0.515625 0.4375 -1.484375q0 -0.96875 -0.421875 -1.71875q-0.4375 -0.75 -1.15625 -1.109375q-0.578125 -0.265625 -1.671875 -0.265625l-0.609375 0zm4.9375 -10.469452l-1.25 0q1.46875 0.9375 1.46875 2.75q0 1.171875 -0.640625 2.171875q-0.65625 0.984375 -1.8125 1.53125q-1.171875 0.53125 -2.6875 0.53125q-1.46875 0 -2.671875 -0.484375q-1.203125 -0.5 -1.84375 -1.46875q-0.640625 -0.984375 -0.640625 -2.203125q0 -0.890625 0.375 -1.578125q0.375 -0.703125 0.984375 -1.140625l-4.875 0l0 -1.65625l13.59375 0l0 1.546875zm-4.921875 5.28125q1.890625 0 2.828125 -0.796875q0.9375 -0.8125 0.9375 -1.890625q0 -1.09375 -0.890625 -1.859375q-0.890625 -0.765625 -2.734375 -0.765625q-2.015625 0 -2.953125 0.78125q-0.953125 0.78125 -0.953125 1.921875q0 1.109375 0.90625 1.859375q0.90625 0.75 2.859375 0.75zm4.921875 -14.590271l-13.59375 0l0 -5.109375q0 -1.546875 0.40625 -2.484375q0.40625 -0.953125 1.265625 -1.484375q0.859375 -0.53125 1.796875 -0.53125q0.875 0 1.65625 0.46875q0.765625 0.46875 1.234375 1.4375q0.359375 -1.234375 1.234375 -1.890625q0.875 -0.671875 2.0625 -0.671875q0.953125 0 1.78125 0.40625q0.8125 0.390625 1.265625 0.984375q0.4375 0.59375 0.671875 1.5q0.21875 0.890625 0.21875 2.1875l0 5.1875zm-7.890625 -1.796875l0 -2.9375q0 -1.203125 -0.15625 -1.71875q-0.203125 -0.6875 -0.671875 -1.03125q-0.46875 -0.359375 -1.1875 -0.359375q-0.671875 0 -1.1875 0.328125q-0.515625 0.328125 -0.703125 0.9375q-0.203125 0.59375 -0.203125 2.0625l0 2.71875l4.109375 0zm6.28125 0l0 -3.390625q0 -0.875 -0.0625 -1.21875q-0.109375 -0.625 -0.359375 -1.046875q-0.265625 -0.421875 -0.765625 -0.6875q-0.5 -0.265625 -1.140625 -0.265625q-0.765625 0 -1.328125 0.390625q-0.5625 0.390625 -0.78125 1.078125q-0.234375 0.6875 -0.234375 1.984375l0 3.15625l4.671875 0zm0.390625 -16.943573q0.796875 0.9375 1.125 1.796875q0.3125 0.859375 0.3125 1.84375q0 1.609375 -0.78125 2.484375q-0.796875 0.875 -2.03125 0.875q-0.734375 0 -1.328125 -0.328125q-0.59375 -0.328125 -0.953125 -0.859375q-0.359375 -0.53125 -0.546875 -1.203125q-0.140625 -0.5 -0.25 -1.484375q-0.25 -2.03125 -0.578125 -2.984375q-0.34375 0 -0.4375 0q-1.015625 0 -1.4375 0.46875q-0.5625 0.640625 -0.5625 1.90625q0 1.171875 0.40625 1.734375q0.40625 0.5625 1.46875 0.828125l-0.234375 1.640625q-1.046875 -0.234375 -1.6875 -0.734375q-0.640625 -0.515625 -0.984375 -1.46875q-0.359375 -0.96875 -0.359375 -2.25q0 -1.265625 0.296875 -2.046875q0.296875 -0.78125 0.75 -1.15625q0.453125 -0.375 1.140625 -0.515625q0.421875 -0.09375 1.53125 -0.09375l2.234375 0q2.328125 0 2.953125 -0.09375q0.609375 -0.109375 1.171875 -0.4375l0 1.75q-0.515625 0.265625 -1.21875 0.328125zm-3.71875 0.140625q0.359375 0.90625 0.625 2.734375q0.140625 1.03125 0.328125 1.453125q0.1875 0.421875 0.546875 0.65625q0.359375 0.234375 0.796875 0.234375q0.671875 0 1.125 -0.5q0.4375 -0.515625 0.4375 -1.484375q0 -0.96875 -0.421875 -1.71875q-0.4375 -0.75 -1.15625 -1.109375q-0.578125 -0.265625 -1.671875 -0.265625l-0.609375 0zm4.9375 -4.0476074l-13.59375 0l0 -1.671875l13.59375 0l0 1.671875zm-1.21875 -10.613586q0.796875 0.9375305 1.125 1.7969055q0.3125 0.859375 0.3125 1.84375q0 1.609375 -0.78125 2.484375q-0.796875 0.875 -2.03125 0.875q-0.734375 0 -1.328125 -0.328125q-0.59375 -0.328125 -0.953125 -0.859375q-0.359375 -0.53125 -0.546875 -1.203125q-0.140625 -0.5 -0.25 -1.484375q-0.25 -2.03125 -0.578125 -2.9844055q-0.34375 0 -0.4375 0q-1.015625 0 -1.4375 0.46875q-0.5625 0.6406555 -0.5625 1.9062805q0 1.171875 0.40625 1.734375q0.40625 0.5625 1.46875 0.828125l-0.234375 1.640625q-1.046875 -0.234375 -1.6875 -0.734375q-0.640625 -0.515625 -0.984375 -1.46875q-0.359375 -0.96875 -0.359375 -2.25q0 -1.265625 0.296875 -2.0469055q0.296875 -0.78125 0.75 -1.15625q0.453125 -0.375 1.140625 -0.515625q0.421875 -0.09375 1.53125 -0.09375l2.234375 0q2.328125 0 2.953125 -0.09375q0.609375 -0.109375 1.171875 -0.4375l0 1.75q-0.515625 0.265625 -1.21875 0.328125zm-3.71875 0.140625q0.359375 0.9062805 0.625 2.7344055q0.140625 1.03125 0.328125 1.453125q0.1875 0.421875 0.546875 0.65625q0.359375 0.234375 0.796875 0.234375q0.671875 0 1.125 -0.5q0.4375 -0.515625 0.4375 -1.484375q0 -0.96875 -0.421875 -1.71875q-0.4375 -0.7500305 -1.15625 -1.1094055q-0.578125 -0.265625 -1.671875 -0.265625l-0.609375 0zm4.9375 -4.078827l-9.859375 0l0 -1.5l1.40625 0q-1.625 -1.09375 -1.625 -3.140625q0 -0.890625 0.328125 -1.640625q0.3125 -0.75 0.84375 -1.109375q0.515625 -0.375 1.21875 -0.53125q0.46875 -0.09375 1.625 -0.09375l6.0625 0l0 1.671875l-6.0 0q-1.015625 0 -1.515625 0.203125q-0.515625 0.1875 -0.8125 0.6875q-0.296875 0.5 -0.296875 1.171875q0 1.0625 0.671875 1.84375q0.671875 0.765625 2.578125 0.765625l5.375 0l0 1.671875zm-3.609375 -16.813217l0.21875 -1.640625q1.6875 0.265625 2.65625 1.375q0.953125 1.109375 0.953125 2.7343597q0 2.015625 -1.3125 3.25q-1.328125 1.21875 -3.796875 1.21875q-1.59375 0 -2.78125 -0.515625q-1.203125 -0.53125 -1.796875 -1.609375q-0.609375 -1.09375 -0.609375 -2.359375q0 -1.6093597 0.8125 -2.6249847q0.8125 -1.015625 2.3125 -1.3125l0.25 1.625q-1.0 0.234375 -1.5 0.828125q-0.5 0.59375 -0.5 1.4218597q0 1.265625 0.90625 2.0625q0.90625 0.78125 2.859375 0.78125q1.984375 0 2.890625 -0.765625q0.890625 -0.765625 0.890625 -1.984375q0 -0.98435974 -0.59375 -1.6406097q-0.609375 -0.65625 -1.859375 -0.84375zm0.4375 -9.640625l0.21875 -1.71875q1.5 0.40625 2.34375 1.515625q0.828125 1.09375 0.828125 2.8125q0 2.15625 -1.328125 3.421875q-1.328125 1.265625 -3.734375 1.265625q-2.484375 0 -3.859375 -1.265625q-1.375 -1.28125 -1.375 -3.328125q0 -1.984375 1.34375 -3.234375q1.34375 -1.25 3.796875 -1.25q0.140625 0 0.4375 0.015625l0 7.34375q1.625 -0.09375 2.484375 -0.921875q0.859375 -0.828125 0.859375 -2.0625q0 -0.90625 -0.46875 -1.546875q-0.484375 -0.65625 -1.546875 -1.046875zm-2.703125 5.484375l0 -5.5q-1.234375 0.109375 -1.859375 0.625q-0.96875 0.796875 -0.96875 2.078125q0 1.140625 0.78125 1.9375q0.765625 0.78125 2.046875 0.859375zm5.875 -9.094452l-9.859375 0l0 -1.5l1.5 0q-1.046875 -0.578125 -1.375 -1.0625q-0.34375 -0.484375 -0.34375 -1.078125q0 -0.84375 0.546875 -1.71875l1.546875 0.578125q-0.359375 0.609375 -0.359375 1.234375q0 0.546875 0.328125 0.984375q0.328125 0.421875 0.90625 0.609375q0.890625 0.28125 1.953125 0.28125l5.15625 0l0 1.671875z" fill-rule="nonzero"></path><path fill="#000000" fill-opacity="0.0" d="m243.31758 208.87665l78.74016 0" fill-rule="nonzero"></path><path stroke="#000000" stroke-width="2.0" stroke-linejoin="round" stroke-linecap="butt" d="m243.31758 208.87665l66.74016 0" fill-rule="evenodd"></path><path fill="#000000" stroke="#000000" stroke-width="2.0" stroke-linecap="butt" d="m310.05774 212.1801l9.076202 -3.3034515l-9.076202 -3.3034668z" fill-rule="evenodd"></path><path fill="#000000" fill-opacity="0.0" d="m243.31758 328.87665l78.74016 0" fill-rule="nonzero"></path><path stroke="#000000" stroke-width="2.0" stroke-linejoin="round" stroke-linecap="butt" d="m243.31758 328.87665l66.74016 0" fill-rule="evenodd"></path><path fill="#000000" stroke="#000000" stroke-width="2.0" stroke-linecap="butt" d="m310.05774 332.1801l9.076202 -3.3034668l-9.076202 -3.3034668z" fill-rule="evenodd"></path><path fill="#cfe2f3" d="m627.70996 674.4239l0 -173.82675l46.015747 0l0 173.82675z" fill-rule="nonzero"></path><path stroke="#000000" stroke-width="2.0" stroke-linejoin="round" stroke-linecap="butt" d="m627.70996 674.4239l0 -173.82675l46.015747 0l0 173.82675z" fill-rule="nonzero"></path><path fill="#000000" d="m653.2628 637.97864l-0.140625 -1.6875q1.015625 -0.125 1.671875 -0.5625q0.65625 -0.4375 1.0625 -1.359375q0.40625 -0.9375 0.40625 -2.09375q0 -1.03125 -0.3125 -1.8125q-0.3125 -0.796875 -0.84375 -1.1875q-0.53125 -0.390625 -1.15625 -0.390625q-0.640625 0 -1.109375 0.375q-0.484375 0.375 -0.8125 1.234375q-0.21875 0.546875 -0.65625 2.421875q-0.453125 1.875 -0.859375 2.625q-0.515625 0.96875 -1.265625 1.453125q-0.75 0.46875 -1.6875 0.46875q-1.03125 0 -1.921875 -0.578125q-0.90625 -0.59375 -1.359375 -1.703125q-0.46875 -1.125 -0.46875 -2.5q0 -1.515625 0.484375 -2.671875q0.484375 -1.15625 1.4375 -1.765625q0.9375 -0.625 2.140625 -0.671875l0.125 1.71875q-1.28125 0.140625 -1.9375 0.953125q-0.671875 0.796875 -0.671875 2.359375q0 1.625 0.609375 2.375q0.59375 0.75 1.4375 0.75q0.734375 0 1.203125 -0.53125q0.46875 -0.515625 0.96875 -2.703125q0.5 -2.203125 0.875 -3.015625q0.546875 -1.1875 1.390625 -1.75q0.828125 -0.578125 1.921875 -0.578125q1.09375 0 2.0625 0.625q0.953125 0.625 1.484375 1.796875q0.53125 1.15625 0.53125 2.609375q0 1.84375 -0.53125 3.09375q-0.546875 1.25 -1.625 1.96875q-1.078125 0.703125 -2.453125 0.734375zm8.15625 -12.8342285l-13.640625 0l0 -1.53125l1.28125 0q-0.75 -0.53125 -1.125 -1.203125q-0.375 -0.6875 -0.375 -1.640625q0 -1.265625 0.65625 -2.234375q0.640625 -0.96875 1.828125 -1.453125q1.1875 -0.5 2.59375 -0.5q1.515625 0 2.734375 0.546875q1.203125 0.546875 1.84375 1.578125q0.640625 1.03125 0.640625 2.171875q0 0.84375 -0.34375 1.515625q-0.359375 0.65625 -0.890625 1.078125l4.796875 0l0 1.671875zm-8.65625 -1.515625q1.90625 0 2.8125 -0.765625q0.90625 -0.78125 0.90625 -1.875q0 -1.109375 -0.9375 -1.890625q-0.9375 -0.796875 -2.921875 -0.796875q-1.875 0 -2.8125 0.78125q-0.9375 0.765625 -0.9375 1.84375q0 1.0625 1.0 1.890625q1.0 0.8125 2.890625 0.8125zm3.65625 -15.297607q0.796875 0.9375 1.125 1.796875q0.3125 0.859375 0.3125 1.84375q0 1.609375 -0.78125 2.484375q-0.796875 0.875 -2.03125 0.875q-0.734375 0 -1.328125 -0.328125q-0.59375 -0.328125 -0.953125 -0.859375q-0.359375 -0.53125 -0.546875 -1.203125q-0.140625 -0.5 -0.25 -1.484375q-0.25 -2.03125 -0.578125 -2.984375q-0.34375 0 -0.4375 0q-1.015625 0 -1.4375 0.46875q-0.5625 0.640625 -0.5625 1.90625q0 1.171875 0.40625 1.734375q0.40625 0.5625 1.46875 0.828125l-0.234375 1.640625q-1.046875 -0.234375 -1.6875 -0.734375q-0.640625 -0.515625 -0.984375 -1.46875q-0.359375 -0.96875 -0.359375 -2.25q0 -1.265625 0.296875 -2.046875q0.296875 -0.78125 0.75 -1.15625q0.453125 -0.375 1.140625 -0.515625q0.421875 -0.09375 1.53125 -0.09375l2.234375 0q2.328125 0 2.953125 -0.09375q0.609375 -0.109375 1.171875 -0.4375l0 1.75q-0.515625 0.265625 -1.21875 0.328125zm-3.71875 0.140625q0.359375 0.90625 0.625 2.734375q0.140625 1.03125 0.328125 1.453125q0.1875 0.421875 0.546875 0.65625q0.359375 0.234375 0.796875 0.234375q0.671875 0 1.125 -0.5q0.4375 -0.515625 0.4375 -1.484375q0 -0.96875 -0.421875 -1.71875q-0.4375 -0.75 -1.15625 -1.109375q-0.578125 -0.265625 -1.671875 -0.265625l-0.609375 0zm4.9375 -4.0631714l-9.859375 0l0 -1.5l1.5 0q-1.046875 -0.578125 -1.375 -1.0625q-0.34375 -0.484375 -0.34375 -1.078125q0 -0.84375 0.546875 -1.71875l1.546875 0.578125q-0.359375 0.609375 -0.359375 1.234375q0 0.546875 0.328125 0.984375q0.328125 0.421875 0.90625 0.609375q0.890625 0.28125 1.953125 0.28125l5.15625 0l0 1.671875zm-2.9375 -5.5564575l-0.265625 -1.65625q1.0 -0.140625 1.53125 -0.765625q0.515625 -0.640625 0.515625 -1.78125q0 -1.15625 -0.46875 -1.703125q-0.46875 -0.5625 -1.09375 -0.5625q-0.5625 0 -0.890625 0.484375q-0.21875 0.34375 -0.5625 1.703125q-0.46875 1.84375 -0.796875 2.5625q-0.34375 0.703125 -0.9375 1.078125q-0.609375 0.359375 -1.328125 0.359375q-0.65625 0 -1.21875 -0.296875q-0.5625 -0.3125 -0.9375 -0.828125q-0.28125 -0.390625 -0.484375 -1.0625q-0.203125 -0.671875 -0.203125 -1.4375q0 -1.171875 0.34375 -2.046875q0.328125 -0.875 0.90625 -1.28125q0.5625 -0.421875 1.515625 -0.578125l0.21875 1.625q-0.75 0.109375 -1.171875 0.65625q-0.4375 0.53125 -0.4375 1.5q0 1.15625 0.390625 1.640625q0.375 0.484375 0.875 0.484375q0.328125 0 0.59375 -0.203125q0.265625 -0.203125 0.4375 -0.640625q0.09375 -0.25 0.4375 -1.46875q0.46875 -1.765625 0.765625 -2.46875q0.296875 -0.703125 0.875 -1.09375q0.578125 -0.40625 1.4375 -0.40625q0.828125 0 1.578125 0.484375q0.734375 0.484375 1.140625 1.40625q0.390625 0.921875 0.390625 2.078125q0 1.921875 -0.796875 2.9375q-0.796875 1.0 -2.359375 1.28125zm-0.234375 -16.75l0.21875 -1.71875q1.5 0.40625 2.34375 1.515625q0.828125 1.09375 0.828125 2.8125q0 2.15625 -1.328125 3.421875q-1.328125 1.265625 -3.734375 1.265625q-2.484375 0 -3.859375 -1.265625q-1.375 -1.28125 -1.375 -3.328125q0 -1.984375 1.34375 -3.234375q1.34375 -1.25 3.796875 -1.25q0.140625 0 0.4375 0.015625l0 7.34375q1.625 -0.09375 2.484375 -0.921875q0.859375 -0.828125 0.859375 -2.0625q0 -0.90625 -0.46875 -1.546875q-0.484375 -0.65625 -1.546875 -1.046875zm-2.703125 5.484375l0 -5.5q-1.234375 0.109375 -1.859375 0.625q-0.96875 0.796875 -0.96875 2.078125q0 1.140625 0.78125 1.9375q0.765625 0.78125 2.046875 0.859375zm5.875 -17.965271l-12.0 0l0 4.46875l-1.59375 0l0 -10.765625l1.59375 0l0 4.5l12.0 0l0 1.796875zm0 -7.708496l-9.859375 0l0 -1.5l1.5 0q-1.046875 -0.578125 -1.375 -1.0625q-0.34375 -0.484375 -0.34375 -1.078125q0 -0.84375 0.546875 -1.71875l1.546875 0.578125q-0.359375 0.609375 -0.359375 1.234375q0 0.546875 0.328125 0.984375q0.328125 0.421875 0.90625 0.609375q0.890625 0.28125 1.953125 0.28125l5.15625 0l0 1.671875zm-3.171875 -12.9782715l0.21875 -1.71875q1.5 0.40625 2.34375 1.515625q0.828125 1.09375 0.828125 2.8125q0 2.15625 -1.328125 3.421875q-1.328125 1.265625 -3.734375 1.265625q-2.484375 0 -3.859375 -1.265625q-1.375 -1.28125 -1.375 -3.328125q0 -1.984375 1.34375 -3.234375q1.34375 -1.25 3.796875 -1.25q0.140625 0 0.4375 0.015625l0 7.34375q1.625 -0.09375 2.484375 -0.921875q0.859375 -0.828125 0.859375 -2.0625q0 -0.90625 -0.46875 -1.546875q-0.484375 -0.65625 -1.546875 -1.046875zm-2.703125 5.484375l0 -5.5q-1.234375 0.109375 -1.859375 0.625q-0.96875 0.796875 -0.96875 2.078125q0 1.140625 0.78125 1.9375q0.765625 0.78125 2.046875 0.859375zm2.703125 -15.860107l0.21875 -1.71875q1.5 0.40625 2.34375 1.515625q0.828125 1.09375 0.828125 2.8125q0 2.15625 -1.328125 3.421875q-1.328125 1.265625 -3.734375 1.265625q-2.484375 0 -3.859375 -1.265625q-1.375 -1.28125 -1.375 -3.328125q0 -1.984375 1.34375 -3.234375q1.34375 -1.25 3.796875 -1.25q0.140625 0 0.4375 0.015625l0 7.34375q1.625 -0.09375 2.484375 -0.921875q0.859375 -0.828125 0.859375 -2.0625q0 -0.90625 -0.46875 -1.546875q-0.484375 -0.65625 -1.546875 -1.046875zm-2.703125 5.484375l0 -5.5q-1.234375 0.109375 -1.859375 0.625q-0.96875 0.796875 -0.96875 2.078125q0 1.140625 0.78125 1.9375q0.765625 0.78125 2.046875 0.859375z" fill-rule="nonzero"></path><path fill="#000000" fill-opacity="0.0" d="m593.83466 224.48819l105.165344 41.5748" fill-rule="nonzero"></path><path stroke="#000000" stroke-width="1.0" stroke-linejoin="round" stroke-linecap="butt" d="m593.83466 224.48819l99.58551 39.368958" fill-rule="evenodd"></path><path fill="#000000" stroke="#000000" stroke-width="1.0" stroke-linecap="butt" d="m692.8129 265.3932l4.8275757 0.13235474l-3.613037 -3.2044678z" fill-rule="evenodd"></path><path fill="#000000" fill-opacity="0.0" d="m593.83466 344.4882l105.165344 -32.409454" fill-rule="nonzero"></path><path stroke="#000000" stroke-width="1.0" stroke-linejoin="round" stroke-linecap="butt" d="m593.83466 344.4882l99.4314 -30.642395" fill-rule="evenodd"></path><path fill="#000000" stroke="#000000" stroke-width="1.0" stroke-linecap="butt" d="m693.75256 315.42426l3.8503418 -2.914978l-4.823242 -0.24197388z" fill-rule="evenodd"></path><path fill="#000000" fill-opacity="0.0" d="m766.4803 289.07086l19.685059 0.7559204" fill-rule="nonzero"></path><path stroke="#000000" stroke-width="1.0" stroke-linejoin="round" stroke-linecap="butt" d="m766.4803 289.07086l13.689514 0.5256653" fill-rule="evenodd"></path><path fill="#000000" stroke="#000000" stroke-width="1.0" stroke-linecap="butt" d="m780.1064 291.24707l4.5981445 -1.4763794l-4.4713745 -1.8246765z" fill-rule="evenodd"></path><path fill="#cfe2f3" d="m675.70996 674.4239l0 -173.82675l46.015747 0l0 173.82675z" fill-rule="nonzero"></path><path stroke="#000000" stroke-width="2.0" stroke-linejoin="round" stroke-linecap="butt" d="m675.70996 674.4239l0 -173.82675l46.015747 0l0 173.82675z" fill-rule="nonzero"></path><path fill="#000000" d="m700.8722 633.8697l0.453125 -1.796875q2.21875 0.5625 3.390625 2.03125q1.15625 1.46875 1.15625 3.59375q0 2.203125 -0.890625 3.578125q-0.90625 1.375 -2.59375 2.09375q-1.703125 0.71875 -3.65625 0.71875q-2.125 0 -3.703125 -0.796875q-1.578125 -0.8125 -2.390625 -2.3125q-0.828125 -1.5 -0.828125 -3.296875q0 -2.046875 1.046875 -3.4375q1.03125 -1.390625 2.90625 -1.9375l0.421875 1.765625q-1.484375 0.46875 -2.15625 1.375q-0.6875 0.90625 -0.6875 2.265625q0 1.5625 0.75 2.625q0.75 1.046875 2.03125 1.484375q1.265625 0.421875 2.609375 0.421875q1.734375 0 3.03125 -0.5q1.28125 -0.515625 1.921875 -1.578125q0.640625 -1.078125 0.640625 -2.3125q0 -1.515625 -0.859375 -2.5625q-0.875 -1.046875 -2.59375 -1.421875zm-0.15625 -2.9260864q-2.734375 0 -4.0625 -1.53125q-1.09375 -1.265625 -1.09375 -3.09375q0 -2.03125 1.34375 -3.3125q1.328125 -1.296875 3.671875 -1.296875q1.90625 0 3.0 0.578125q1.078125 0.5625 1.6875 1.65625q0.59375 1.078125 0.59375 2.375q0 2.0625 -1.328125 3.34375q-1.328125 1.28125 -3.8125 1.28125zm0 -1.71875q1.890625 0 2.828125 -0.828125q0.9375 -0.828125 0.9375 -2.078125q0 -1.25 -0.9375 -2.0625q-0.953125 -0.828125 -2.890625 -0.828125q-1.828125 0 -2.765625 0.828125q-0.9375 0.828125 -0.9375 2.0625q0 1.25 0.9375 2.078125q0.9375 0.828125 2.828125 0.828125zm4.921875 -9.281982l-9.859375 0l0 -1.5l1.390625 0q-0.71875 -0.453125 -1.15625 -1.21875q-0.453125 -0.78125 -0.453125 -1.765625q0 -1.09375 0.453125 -1.796875q0.453125 -0.703125 1.28125 -0.984375q-1.734375 -1.171875 -1.734375 -3.046875q0 -1.46875 0.8125 -2.25q0.8125 -0.796875 2.5 -0.796875l6.765625 0l0 1.671875l-6.203125 0q-1.0 0 -1.4375 0.15625q-0.453125 0.15625 -0.71875 0.59375q-0.265625 0.421875 -0.265625 1.0q0 1.03125 0.6875 1.71875q0.6875 0.6875 2.21875 0.6875l5.71875 0l0 1.671875l-6.40625 0q-1.109375 0 -1.65625 0.40625q-0.5625 0.40625 -0.5625 1.34375q0 0.703125 0.375 1.3125q0.359375 0.59375 1.078125 0.859375q0.71875 0.265625 2.0625 0.265625l5.109375 0l0 1.671875zm0 -15.5407715l-9.859375 0l0 -1.5l1.390625 0q-0.71875 -0.453125 -1.15625 -1.21875q-0.453125 -0.78125 -0.453125 -1.765625q0 -1.09375 0.453125 -1.796875q0.453125 -0.703125 1.28125 -0.984375q-1.734375 -1.171875 -1.734375 -3.046875q0 -1.46875 0.8125 -2.25q0.8125 -0.796875 2.5 -0.796875l6.765625 0l0 1.671875l-6.203125 0q-1.0 0 -1.4375 0.15625q-0.453125 0.15625 -0.71875 0.59375q-0.265625 0.421875 -0.265625 1.0q0 1.03125 0.6875 1.71875q0.6875 0.6875 2.21875 0.6875l5.71875 0l0 1.671875l-6.40625 0q-1.109375 0 -1.65625 0.40625q-0.5625 0.40625 -0.5625 1.34375q0 0.703125 0.375 1.3125q0.359375 0.59375 1.078125 0.859375q0.71875 0.265625 2.0625 0.265625l5.109375 0l0 1.671875zm-11.6875 -15.5564575l-1.90625 0l0 -1.671875l1.90625 0l0 1.671875zm11.6875 0l-9.859375 0l0 -1.671875l9.859375 0l0 1.671875zm-1.5 -7.7854004l1.484375 -0.234375q0.140625 0.703125 0.140625 1.265625q0 0.90625 -0.28125 1.40625q-0.296875 0.5 -0.75 0.703125q-0.46875 0.203125 -1.984375 0.203125l-5.65625 0l0 1.234375l-1.3125 0l0 -1.234375l-2.4375 0l-1.0 -1.65625l3.4375 0l0 -1.6875l1.3125 0l0 1.6875l5.75 0q0.71875 0 0.921875 -0.078125q0.203125 -0.09375 0.328125 -0.296875q0.125 -0.203125 0.125 -0.578125q0 -0.265625 -0.078125 -0.734375zm1.5 -1.5270996l-9.859375 0l0 -1.5l1.390625 0q-0.71875 -0.453125 -1.15625 -1.21875q-0.453125 -0.78125 -0.453125 -1.765625q0 -1.09375 0.453125 -1.796875q0.453125 -0.703125 1.28125 -0.984375q-1.734375 -1.171875 -1.734375 -3.046875q0 -1.46875 0.8125 -2.25q0.8125 -0.796875 2.5 -0.796875l6.765625 0l0 1.671875l-6.203125 0q-1.0 0 -1.4375 0.15625q-0.453125 0.15625 -0.71875 0.59375q-0.265625 0.421875 -0.265625 1.0q0 1.03125 0.6875 1.71875q0.6875 0.6875 2.21875 0.6875l5.71875 0l0 1.671875l-6.40625 0q-1.109375 0 -1.65625 0.40625q-0.5625 0.40625 -0.5625 1.34375q0 0.703125 0.375 1.3125q0.359375 0.59375 1.078125 0.859375q0.71875 0.265625 2.0625 0.265625l5.109375 0l0 1.671875zm-3.171875 -22.290771l0.21875 -1.71875q1.5 0.40625 2.34375 1.515625q0.828125 1.09375 0.828125 2.8125q0 2.15625 -1.328125 3.421875q-1.328125 1.265625 -3.734375 1.265625q-2.484375 0 -3.859375 -1.265625q-1.375 -1.28125 -1.375 -3.328125q0 -1.984375 1.34375 -3.234375q1.34375 -1.25 3.796875 -1.25q0.140625 0 0.4375 0.015625l0 7.34375q1.625 -0.09375 2.484375 -0.921875q0.859375 -0.828125 0.859375 -2.0625q0 -0.90625 -0.46875 -1.546875q-0.484375 -0.65625 -1.546875 -1.046875zm-2.703125 5.484375l0 -5.5q-1.234375 0.109375 -1.859375 0.625q-0.96875 0.796875 -0.96875 2.078125q0 1.140625 0.78125 1.9375q0.765625 0.78125 2.046875 0.859375zm5.875 -9.110107l-9.859375 0l0 -1.5l1.40625 0q-1.625 -1.09375 -1.625 -3.140625q0 -0.890625 0.328125 -1.640625q0.3125 -0.75 0.84375 -1.109375q0.515625 -0.375 1.21875 -0.53125q0.46875 -0.09375 1.625 -0.09375l6.0625 0l0 1.671875l-6.0 0q-1.015625 0 -1.515625 0.203125q-0.515625 0.1875 -0.8125 0.6875q-0.296875 0.5 -0.296875 1.171875q0 1.0625 0.671875 1.84375q0.671875 0.765625 2.578125 0.765625l5.375 0l0 1.671875zm-1.5 -14.031982l1.484375 -0.234375q0.140625 0.703125 0.140625 1.265625q0 0.90625 -0.28125 1.40625q-0.296875 0.5 -0.75 0.703125q-0.46875 0.203125 -1.984375 0.203125l-5.65625 0l0 1.234375l-1.3125 0l0 -1.234375l-2.4375 0l-1.0 -1.65625l3.4375 0l0 -1.6875l1.3125 0l0 1.6875l5.75 0q0.71875 0 0.921875 -0.078125q0.203125 -0.09375 0.328125 -0.296875q0.125 -0.203125 0.125 -0.578125q0 -0.265625 -0.078125 -0.734375zm-1.4375 -0.8551636l-0.265625 -1.65625q1.0 -0.140625 1.53125 -0.765625q0.515625 -0.640625 0.515625 -1.78125q0 -1.15625 -0.46875 -1.703125q-0.46875 -0.5625 -1.09375 -0.5625q-0.5625 0 -0.890625 0.484375q-0.21875 0.34375 -0.5625 1.703125q-0.46875 1.84375 -0.796875 2.5625q-0.34375 0.703125 -0.9375 1.078125q-0.609375 0.359375 -1.328125 0.359375q-0.65625 0 -1.21875 -0.296875q-0.5625 -0.3125 -0.9375 -0.828125q-0.28125 -0.390625 -0.484375 -1.0625q-0.203125 -0.671875 -0.203125 -1.4375q0 -1.171875 0.34375 -2.046875q0.328125 -0.875 0.90625 -1.28125q0.5625 -0.421875 1.515625 -0.578125l0.21875 1.625q-0.75 0.109375 -1.171875 0.65625q-0.4375 0.53125 -0.4375 1.5q0 1.15625 0.390625 1.640625q0.375 0.484375 0.875 0.484375q0.328125 0 0.59375 -0.203125q0.265625 -0.203125 0.4375 -0.640625q0.09375 -0.25 0.4375 -1.46875q0.46875 -1.765625 0.765625 -2.46875q0.296875 -0.703125 0.875 -1.09375q0.578125 -0.40625 1.4375 -0.40625q0.828125 0 1.578125 0.484375q0.734375 0.484375 1.140625 1.40625q0.390625 0.921875 0.390625 2.078125q0 1.921875 -0.796875 2.9375q-0.796875 1.0 -2.359375 1.28125z" fill-rule="nonzero"></path><path fill="#cfe2f3" d="m723.70996 674.4239l0 -173.82675l46.015747 0l0 173.82675z" fill-rule="nonzero"></path><path stroke="#000000" stroke-width="2.0" stroke-linejoin="round" stroke-linecap="butt" d="m723.70996 674.4239l0 -173.82675l46.015747 0l0 173.82675z" fill-rule="nonzero"></path><path fill="#000000" d="m753.6378 631.32446l-12.0 0l0 4.46875l-1.59375 0l0 -10.765625l1.59375 0l0 4.5l12.0 0l0 1.796875zm0 -7.708496l-9.859375 0l0 -1.5l1.5 0q-1.046875 -0.578125 -1.375 -1.0625q-0.34375 -0.484375 -0.34375 -1.078125q0 -0.84375 0.546875 -1.71875l1.546875 0.578125q-0.359375 0.609375 -0.359375 1.234375q0 0.546875 0.328125 0.984375q0.328125 0.421875 0.90625 0.609375q0.890625 0.28125 1.953125 0.28125l5.15625 0l0 1.671875zm-3.171875 -12.9782715l0.21875 -1.71875q1.5 0.40625 2.34375 1.515625q0.828125 1.09375 0.828125 2.8125q0 2.15625 -1.328125 3.421875q-1.328125 1.265625 -3.734375 1.265625q-2.484375 0 -3.859375 -1.265625q-1.375 -1.28125 -1.375 -3.328125q0 -1.984375 1.34375 -3.234375q1.34375 -1.25 3.796875 -1.25q0.140625 0 0.4375 0.015625l0 7.34375q1.625 -0.09375 2.484375 -0.921875q0.859375 -0.828125 0.859375 -2.0625q0 -0.90625 -0.46875 -1.546875q-0.484375 -0.65625 -1.546875 -1.046875zm-2.703125 5.484375l0 -5.5q-1.234375 0.109375 -1.859375 0.625q-0.96875 0.796875 -0.96875 2.078125q0 1.140625 0.78125 1.9375q0.765625 0.78125 2.046875 0.859375zm2.703125 -15.860107l0.21875 -1.71875q1.5 0.40625 2.34375 1.515625q0.828125 1.09375 0.828125 2.8125q0 2.15625 -1.328125 3.421875q-1.328125 1.265625 -3.734375 1.265625q-2.484375 0 -3.859375 -1.265625q-1.375 -1.28125 -1.375 -3.328125q0 -1.984375 1.34375 -3.234375q1.34375 -1.25 3.796875 -1.25q0.140625 0 0.4375 0.015625l0 7.34375q1.625 -0.09375 2.484375 -0.921875q0.859375 -0.828125 0.859375 -2.0625q0 -0.90625 -0.46875 -1.546875q-0.484375 -0.65625 -1.546875 -1.046875zm-2.703125 5.484375l0 -5.5q-1.234375 0.109375 -1.859375 0.625q-0.96875 0.796875 -0.96875 2.078125q0 1.140625 0.78125 1.9375q0.765625 0.78125 2.046875 0.859375zm5.875 -14.559021l-13.59375 0l0 -1.8125l5.578125 0l0 -7.0625l-5.578125 0l0 -1.796875l13.59375 0l0 1.796875l-6.40625 0l0 7.0625l6.40625 0l0 1.8125zm-3.171875 -19.957336l0.21875 -1.71875q1.5 0.40625 2.34375 1.515625q0.828125 1.09375 0.828125 2.8125q0 2.15625 -1.328125 3.421875q-1.328125 1.265625 -3.734375 1.265625q-2.484375 0 -3.859375 -1.265625q-1.375 -1.28125 -1.375 -3.328125q0 -1.984375 1.34375 -3.234375q1.34375 -1.25 3.796875 -1.25q0.140625 0 0.4375 0.015625l0 7.34375q1.625 -0.09375 2.484375 -0.921875q0.859375 -0.828125 0.859375 -2.0625q0 -0.90625 -0.46875 -1.546875q-0.484375 -0.65625 -1.546875 -1.046875zm-2.703125 5.484375l0 -5.5q-1.234375 0.109375 -1.859375 0.625q-0.96875 0.796875 -0.96875 2.078125q0 1.140625 0.78125 1.9375q0.765625 0.78125 2.046875 0.859375zm4.65625 -15.547546q0.796875 0.9375 1.125 1.796875q0.3125 0.859375 0.3125 1.84375q0 1.609375 -0.78125 2.484375q-0.796875 0.875 -2.03125 0.875q-0.734375 0 -1.328125 -0.328125q-0.59375 -0.328125 -0.953125 -0.859375q-0.359375 -0.53125 -0.546875 -1.203125q-0.140625 -0.5 -0.25 -1.484375q-0.25 -2.03125 -0.578125 -2.984375q-0.34375 0 -0.4375 0q-1.015625 0 -1.4375 0.46875q-0.5625 0.640625 -0.5625 1.90625q0 1.171875 0.40625 1.734375q0.40625 0.5625 1.46875 0.828125l-0.234375 1.640625q-1.046875 -0.234375 -1.6875 -0.734375q-0.640625 -0.515625 -0.984375 -1.46875q-0.359375 -0.96875 -0.359375 -2.25q0 -1.265625 0.296875 -2.046875q0.296875 -0.78125 0.75 -1.15625q0.453125 -0.375 1.140625 -0.515625q0.421875 -0.09375 1.53125 -0.09375l2.234375 0q2.328125 0 2.953125 -0.09375q0.609375 -0.109375 1.171875 -0.4375l0 1.75q-0.515625 0.265625 -1.21875 0.328125zm-3.71875 0.140625q0.359375 0.90625 0.625 2.734375q0.140625 1.03125 0.328125 1.453125q0.1875 0.421875 0.546875 0.65625q0.359375 0.234375 0.796875 0.234375q0.671875 0 1.125 -0.5q0.4375 -0.515625 0.4375 -1.484375q0 -0.96875 -0.421875 -1.71875q-0.4375 -0.75 -1.15625 -1.109375q-0.578125 -0.265625 -1.671875 -0.265625l-0.609375 0zm4.9375 -10.469482l-1.25 0q1.46875 0.9375 1.46875 2.75q0 1.171875 -0.640625 2.171875q-0.65625 0.984375 -1.8125 1.53125q-1.171875 0.53125 -2.6875 0.53125q-1.46875 0 -2.671875 -0.484375q-1.203125 -0.5 -1.84375 -1.46875q-0.640625 -0.984375 -0.640625 -2.203125q0 -0.890625 0.375 -1.578125q0.375 -0.703125 0.984375 -1.140625l-4.875 0l0 -1.65625l13.59375 0l0 1.546875zm-4.921875 5.28125q1.890625 0 2.828125 -0.796875q0.9375 -0.8125 0.9375 -1.890625q0 -1.09375 -0.890625 -1.859375q-0.890625 -0.765625 -2.734375 -0.765625q-2.015625 0 -2.953125 0.78125q-0.953125 0.78125 -0.953125 1.921875q0 1.109375 0.90625 1.859375q0.90625 0.75 2.859375 0.75zm1.984375 -8.594482l-0.265625 -1.65625q1.0 -0.140625 1.53125 -0.765625q0.515625 -0.640625 0.515625 -1.78125q0 -1.15625 -0.46875 -1.703125q-0.46875 -0.5625 -1.09375 -0.5625q-0.5625 0 -0.890625 0.484375q-0.21875 0.34375 -0.5625 1.703125q-0.46875 1.84375 -0.796875 2.5625q-0.34375 0.703125 -0.9375 1.078125q-0.609375 0.359375 -1.328125 0.359375q-0.65625 0 -1.21875 -0.296875q-0.5625 -0.3125 -0.9375 -0.828125q-0.28125 -0.390625 -0.484375 -1.0625q-0.203125 -0.671875 -0.203125 -1.4375q0 -1.171875 0.34375 -2.046875q0.328125 -0.875 0.90625 -1.28125q0.5625 -0.421875 1.515625 -0.578125l0.21875 1.625q-0.75 0.109375 -1.171875 0.65625q-0.4375 0.53125 -0.4375 1.5q0 1.15625 0.390625 1.640625q0.375 0.484375 0.875 0.484375q0.328125 0 0.59375 -0.203125q0.265625 -0.203125 0.4375 -0.640625q0.09375 -0.25 0.4375 -1.46875q0.46875 -1.765625 0.765625 -2.46875q0.296875 -0.703125 0.875 -1.09375q0.578125 -0.40625 1.4375 -0.40625q0.828125 0 1.578125 0.484375q0.734375 0.484375 1.140625 1.40625q0.390625 0.921875 0.390625 2.078125q0 1.921875 -0.796875 2.9375q-0.796875 1.0 -2.359375 1.28125z" fill-rule="nonzero"></path><path fill="#cfe2f3" d="m626.82806 446.55246l143.77954 0l0 54.173218l-143.77954 0z" fill-rule="nonzero"></path><path stroke="#000000" stroke-width="1.0" stroke-linejoin="round" stroke-linecap="butt" d="m626.82806 446.55246l143.77954 0l0 54.173218l-143.77954 0z" fill-rule="nonzero"></path><path fill="#000000" d="m680.9118 476.18408l1.6875 -0.140625q0.125 1.015625 0.5625 1.671875q0.4375 0.65625 1.359375 1.0625q0.9375 0.40625 2.09375 0.40625q1.03125 0 1.8125 -0.3125q0.796875 -0.3125 1.1875 -0.84375q0.390625 -0.53125 0.390625 -1.15625q0 -0.640625 -0.375 -1.109375q-0.375 -0.484375 -1.234375 -0.8125q-0.546875 -0.21875 -2.421875 -0.65625q-1.875 -0.453125 -2.625 -0.859375q-0.96875 -0.515625 -1.453125 -1.265625q-0.46875 -0.75 -0.46875 -1.6875q0 -1.03125 0.578125 -1.921875q0.59375 -0.90625 1.703125 -1.359375q1.125 -0.46875 2.5 -0.46875q1.515625 0 2.671875 0.484375q1.15625 0.484375 1.765625 1.4375q0.625 0.9375 0.671875 2.140625l-1.71875 0.125q-0.140625 -1.28125 -0.953125 -1.9375q-0.796875 -0.671875 -2.359375 -0.671875q-1.625 0 -2.375 0.609375q-0.75 0.59375 -0.75 1.4375q0 0.734375 0.53125 1.203125q0.515625 0.46875 2.703125 0.96875q2.203125 0.5 3.015625 0.875q1.1875 0.546875 1.75 1.390625q0.578125 0.828125 0.578125 1.921875q0 1.09375 -0.625 2.0625q-0.625 0.953125 -1.796875 1.484375q-1.15625 0.53125 -2.609375 0.53125q-1.84375 0 -3.09375 -0.53125q-1.25 -0.546875 -1.96875 -1.625q-0.703125 -1.078125 -0.734375 -2.453125zm23.349854 2.921875q1.265625 0.859375 2.3125 1.265625l-0.53125 1.25q-1.453125 -0.53125 -2.921875 -1.671875q-1.5 0.84375 -3.328125 0.84375q-1.84375 0 -3.359375 -0.890625q-1.5 -0.890625 -2.3125 -2.5q-0.8125 -1.625 -0.8125 -3.640625q0 -2.015625 0.8125 -3.65625q0.828125 -1.65625 2.328125 -2.515625q1.515625 -0.875 3.375 -0.875q1.890625 0 3.390625 0.90625q1.515625 0.890625 2.3125 2.5q0.796875 1.609375 0.796875 3.625q0 1.6875 -0.515625 3.03125q-0.515625 1.328125 -1.546875 2.328125zm-3.953125 -2.296875q1.5625 0.421875 2.5625 1.296875q1.59375 -1.453125 1.59375 -4.359375q0 -1.65625 -0.5625 -2.875q-0.5625 -1.234375 -1.640625 -1.921875q-1.078125 -0.6875 -2.421875 -0.6875q-2.015625 0 -3.34375 1.390625q-1.328125 1.375 -1.328125 4.109375q0 2.65625 1.3125 4.078125q1.3125 1.40625 3.359375 1.40625q0.953125 0 1.8125 -0.359375q-0.84375 -0.546875 -1.78125 -0.78125l0.4375 -1.296875zm8.089539 3.75l0 -13.59375l1.796875 0l0 11.984375l6.703125 0l0 1.609375l-8.5 0z" fill-rule="nonzero"></path><path fill="#000000" fill-opacity="0.0" d="m864.7874 332.3127l-166.07874 114.23624" fill-rule="nonzero"></path><path stroke="#000000" stroke-width="1.0" stroke-linejoin="round" stroke-linecap="butt" d="m864.7874 332.3127l-161.13525 110.83588" fill-rule="evenodd"></path><path fill="#000000" stroke="#000000" stroke-width="1.0" stroke-linecap="butt" d="m702.71606 441.78772l-2.8029175 3.9327087l4.675049 -1.2109375z" fill-rule="evenodd"></path><path fill="#000000" fill-opacity="0.0" d="m698.71783 446.55246l-191.81104 -59.590546" fill-rule="nonzero"></path><path stroke="#000000" stroke-width="1.0" stroke-linejoin="round" stroke-linecap="butt" d="m698.71783 446.55246l-186.08118 -57.810455" fill-rule="evenodd"></path><path fill="#000000" stroke="#000000" stroke-width="1.0" stroke-linecap="butt" d="m513.1267 387.16464l-4.8238525 0.23098755l3.84375 2.9237366z" fill-rule="evenodd"></path></g></svg>

